<mxfile host="app.diagrams.net" agent="Mozilla/5.0 (Windows NT 10.0; Win64; x64) AppleWebKit/537.36 (KHTML, like Gecko) Chrome/134.0.0.0 Safari/537.36" version="26.1.3">
  <diagram name="第 1 页" id="N3A02QdjB_eCM9TN7NSa">
    <mxGraphModel dx="1050" dy="522" grid="1" gridSize="10" guides="1" tooltips="1" connect="1" arrows="1" fold="1" page="1" pageScale="1" pageWidth="827" pageHeight="1169" math="0" shadow="0">
      <root>
        <mxCell id="0" />
        <mxCell id="1" parent="0" />
        <mxCell id="q5xawFNWXhV-jU2xZssF-4" value="" style="shape=image;verticalLabelPosition=bottom;labelBackgroundColor=default;verticalAlign=top;aspect=fixed;imageAspect=0;image=data:image/png,iVBORw0KGgoAAAANSUhEUgAAAnEAAANKCAYAAADlRxjiAAAAAXNSR0IArs4c6QAAAARnQU1BAACxjwv8YQUAAAAJcEhZcwAAEnQAABJ0Ad5mH3gAAKyISURBVHhe7b151C1XWaD//elyOYAIyiiSKPnwQghiUBAMtLTij2kRaODTCzQhgIACajMJS3Hm8nUrbdMaCEOQeZQLHyAKCbMQEIko6oULQjQYjajRIKJdv/VW1a6z56pdtatOVZ3nydor96tTp87eu3bt9zlvDWevAAAAAIDFsWcvAAAAAID5g8QBAAAALBAkDgAAAGCBIHEAAAAACwSJAwAAAFggSBwAAADAAkHiAAAAABYIEgcAAACwQJA4AAAAgAWCxAEAAAAsECQOAAAAYIEgcQAAAAALBIkDAAAAWCBIHAAAAMACQeIAAAAAFggSBwAAALBAkDgAAACABYLEAQAAACwQJA4AAABggSBxAAAAAAsEiQMAAABYIEgcAAAAwAJB4gAAAAAWCBIHAAAAsECQOAAAAIAFgsQBAAAALBAkDgAAAGCBIHEAAAAACwSJAwAAAFggSBwAAADAAlmUxP3Lv/xLce9735tC2Wq5/PLL7aEJAAAwOYuTuO/93u8tPve5z1EoWymPfOQjkTgAAJgFi5Q4gG2BxAEAwFxA4gASQOIAAGAuIHEACSBxAAAwF5A4gARsiXvuc59bjkkKhbIpcv0oAIwPEgeQgE/iLrnkknJsUiiU6gkCSBzANCBxu8rJg2Lv+JG9NM6pw2J/b684OGm/oHO6ODy2l77thRCSOACoQOIApgOJ20l6ihYSh8QBtIDEAUwHEreT9BQtJA6JA2gBiQOYDiRuZE6f2C/29g4KU2mOioM9S3Tk9KYsa8p+cXhKf49nnWOHxWnn9YPisPzMah1XuOrP9n1OLWn6Z+yf0D5BSdwJaz1D2PwSV/VD6D3LAYkDiIPEAUwHEjcynSSuljNduOz3KQnarFPLki5ySvJsuXPwiJYvy2bXS5O8zXq2kLrbPjpuS6n9nuWAxAHEQeIApgOJGxlbxipMifGvoxOQnlqqmmyZLV1BAqLlyJ+1nv15ivJzlaSlvKdLXecFEgcQB4kDmA4kbmT8gmZJmZbhcmRHCAqPJUyGTMVwJc7APm1r1dOtR9Wequ7mtqv2++qkv2c5IHEAcZA4gOlA4kamk8SV1PKjyZOdYQuWHBJnXQ/nE7JqHd/22yTOU2e7jQsBiQOIg8QBTAcSNzLdJc6kuo6slpyuctZ1PVvOfNfX+dbrnYmz279ckDiAOEgcwHQgcSPjlRiV9YpInCl6oVOP1vLeEheQSrue0evb4tfEOeIXWj5zkDiAOEgcwHQgcWPjiI922jR23Zh1HZx7d6rK1mmC2Fni7BsZVJ102XTruTnl6nksiZ3V04TQvTs1lPmbP0gcQBwkDmA6kLgpsK5pOzjpio7v2jEnS2VfG2dLUILE6duqPse9Jk+WG6KosmfWc+LMzJzbtnKp3T4767cQdkrigtdAjkmVFXbGvkU5LhPGkP/u6/GQz7Mz1uUxMLAOvu2G6d6X3bfZDhIHMB1IHEACSNzYdBePOUtcc4mC9plZ6pByGUL5Ra39elQkDmC5IHEACaxP4mrZ6FXyCZ6TqU0q7fXoLFDO5Q+bm4y8JSqSVVZaCVfnOrRQ9lX0cyvsz9PbcXAyvN+HCh0SBzAdSBxAAuuTuAhLy8Q112ymFi1bFZQ4X0bLzbbF8NbZi3tpQ+ei6mL3RVNHqbO5TzeZuOpzkTiA5YDEASSAxI3NUInz19fOSjWU7+krcb4be8IZrtbiq59DQv94tqf6LZpdHJiNQ+IApgOJA0ggu8R5b0bx3L1r39TivEewBcJ3x/NBcaiduixlwNl2t9ImEv2w2xApc5C4Dq9X+G/4UXS/6aGLxHkyefK5dltryMQBLBckDiCBrUic9biZcg37+YNORsjz6Bola51kIS5F49FFUmaUifP1s5d4u4L1c4hvx8Q8dbqRNfWaR4wHZuEEJA5gOhYlcVdffXVx1llnFXe/+90pkXLuuecW+/v7znLK8CJfInRpm0LiHGHz4BeNdhmMEpGi8egmKXOSuE792uxn2SduHb3t8dKtfyp0iTOlTX8/mTiA5bI4iTvnnHOKo6MjSqT89E//dHGHO9zBWU4ZXg4ODiaXuCbLFsyS1AHaIwGGAHo+a9hdoaH6DCGcIXKK3d4ZS9zm808XR8fdzJ0jcYNOcXtOpzaf50qkmaEbDhIHMB2LkjhOp3bjZ37mZ4o73elO9mLIwFZOp+rLtMDc5dRYVcISF0LJ30HmAN9Ot0yTIz2CJrtpZZjEtZ5Orbfpng7XxcrTHi/d+qdCy8TJvi/HU73sZLivhu5vJA5gOpC4FYLEjcf2JM6kEgsVcKvA3hp8vZ/lYkiLnanSsnfdRCKVbpISljh/+8bMxHV63fPZ/U5jduufCv10av0Zxw+KfasuZOIAlgsSt0KQuPGYRuLqzJon8G8wT6HGRMG8Js7+LA0tk2VIgn1qz/M5w3CzjKmlTUJC/eOQKnGe9Q3a+ryko4SX9JO4oxOHxel6P8rnqC8B3mLLcSJIHMB0IHErBIkbj+wS57merQmwtXR4T9fZ12EpAfNcV9WsExSKzenY/ROHfkko3xsQGY0uN2Fsg3EkrkW2Pdvy4jndGqaHxJ04qMeFO9bKtcjEASwWJG6FIHHjkV/i3Gu5mkyJJge+GxDcQL6Rsar4xM9cpoRxsy1LEoxTlGr7PqERUq7tasErNipjF/r8MHZ/BvGIVyxrFZYfvzD5CEuijwSJU+NK/zJw/LDuw804QOIAlgsSl0CnLIOd/dgCSNx4jCJxs6I+tXeslkav+GiyaEjK5vRdX5ws5Cn9008Xpw2ZtD8/TGeJy4E6/eytmy3aVdHnC5+wJ5X6c435yr5e0PriYJchUofEAUwHEpcbJG7VrF7i6mzdwckeQVze20uUNtfEJR832nVeMSaTOG8GcfvkzrbFQOIApgOJyw0St2pWL3EAA0HiAKYDiUvAdzrVPPVRX0S8eomrT7k5d7m5p5rdU0Oea7KOHRZHdj/KOtZdkW6f2qemhp3K6wISBxAHiQOYDiQuAVviKoHxX2fiCsd0TCVxZjvrZc7F+KbY2RdxNxLYXD+kPW7C2Zanr7Xrjpx1RgCJA4iDxAFMBxKXgHuhsOc6k504neq/886Utk22zsC6ZsiWOsErYx3e1+UhuUNB4gDiIHEA04HEJWBIiudxDSUzuLB5KomzBc2XeVPYj2kwZMySrnaJ80ukEKtDDpA4gDhIHMB0IHEJ6ILgFY2ShOc4jcR2JW7TJ871grLcl1HrK3HBgsQBbAskDmA6kLgEyMQpOkhc6HRzRolztj0BSBxAHCQOYDqQuAS4Jk7hlyhDvgL9oLJzwyTO/77Y8lwgcQBxkDiA6UDiErCvt3Jlw3fX5vTMQuI8d4/67t71SZfbr67EebcfEMecIHEAcZA4gOlA4hKwJW6zTLtg/wSnUxv50qRtc62aeVNCb4krsa+N85zezgwSBxAHiQOYDiRuhYwvcbsLEgcQB4kDmA4kboUgceOBxAHEQeIApgOJWyFI3HggcQBxkDiA6UDiVggSNx4+iZMxSaFQNgWJA5gGJG6FIHHjYUucjEkKheIWABgfJG6FIHHjYUscAADAtliUxF199dXFGWecUVx44YWUSLnrXe9a3OhGN3KWU4aXu93tblwDBwAAs2BxEnfs2LHi137t1yiR8lM/9VP000jlwQ9+MBIHAACzYFESx+nUbnA6dTw4nQoAAHMBiVshSNx4IHEAADAXkLgVsnSJ8/282VxA4gAAYC4gcStkXhLn/53VMNX62/zt2RhIHAAAzAUkboUsWeLKLNyxw0KtXWXl9B+595XpsnZIHAAAzAUkrjeVnGxDJNpYrMSdOiz29/aLw1P2Cxu2faoViQMAgLmAxPWiFrjjG5U4Oj4fkduqxJ08KPYMEbMkrnzd309lHzZ96j+tuiSJs59gT6FQKJT1lylB4npQiYSVMSqzSB0zTiOzTYkzRaxcYkpcoJ9MOTtdHB7bM06r+tebnhSJ43dVKRQKZbdK1/iQCySuB0hcCF/2zD2d6staute++U+rLk3ieDAwAMBukBIfcoHE9SJ0OtUvHlOzLYnzC5YrcVHhrV+zT6Mq/J8xHSkHKRIHALA7pMSHXCBxA6jErS6eU3/bYjsSV50CdcXMI3GBbFxzGtU4HWuCxAEAwBxJiQ+5QOL6UF6cb4qJOh0YyiBNyVYkLnjDgl/ifNk4+/EiPpA4AACYIynxIRdIXDLhi+7L7JJn+dRML3GxDFpA4tR7lJDVUmc/A86WYiQOAADmSEp8yAUSl0xYWLYtGIrJJc55rIhOSOKsjGb97zYJ3nYfpxykSBwAwO6QEh9ygcQlQybORsTKK2klEYkLXkcXBokDAIA5khIfcoHE9YFr4hKISZwH67Sq/T4kDgAA5khKfMgFEtcX5xqu0OnE6ZmVxHluYPDR3OnbkslE4gAAYI6kxIdcIHErZNsSZzx6pYOYBXFEOVI81yiOQcpBisQBAOwOKfEhF0jcCtm2xK2ZlIMUiQMA2B1S4kMukLgVgsSNR8pBisQBAOwOKfEhF0jcCkHixiPlIEXiAAB2h5T4kAskboUgceORcpAicQAAu0NKfMgFErdCkLjxSDlIkTgAgN0hJT7kYlESd/XVVxfHjh0rAyMlXO5zn/sUZ5xxhrOcMrzc9773Lf/fhV2ROJm0KBQKZU7lc5/7nD1VjQ4S14JI3FlnnVWcf/75lEj5wR/8weI2t7mNs5ySp3QVs12ROGmjTF4UCoUyh3Lve98biZsjnE7tBqdTxyPlIN0liZO2AgDMASRupiBx3UDixiPlIEXiAACmB4mbKUhcN5C48Ug5SJE4AIDpQeJmChLXjXlJ3FFx0OG3Uzekrj8tKQcpEgcAMD1I3ExB4rqxZIkrf+Be+61V53dYnXJQTPOrqRUpBykSBwAwPUjcTJmHxFVScnDSXr6hFI+JfpDdx2IlrvzB+/3i8JT9QoCTB0jcDEDiAGBOIHEzZfsSd7o4PFZlgEISV2aSJEO0qxJXipUuYpbERcRL5FetV4rwscPiSPVnqGhZuylIOUiROACA6UHiZspWJa7MEm3kwZW4jeDtssS5WUhL4up+tDNzpfyq95Wi5+tjE/vU6xSkHKRIHADA9CBxM2VrEqcETiSj/rcpGErgJMNU/3snJc53qtk9nVpd52Zm45xr3zr0nyF+E5FykCJxE2J9ydqU/eLwRPWlQC/6ePR+GUg5tS/r2u9vsL7cBepQHifBbQxFjkFf9rs6Nu16OcVTL+kzp/7ez3CR97Z9Qauo+q7TuoF94NYzQLm/4/WXOSpUl66fE12v/vLqFrNe3v5rxn/bmJU+rbcnn1fOn7Ksfl+zzEK2Xy9vzjZ5S7wPpwKJmylbkzgdr8Tp7K7EVQe3fRC7EhfKxgl6QI1PFlaZqL9TDlIkbmKsQK4Cpin7thh4ROb4oV+8ZNtBWfQUj1Q0nDxwJSi2fgv2seJ+kbKPy3bUNqttefqppfiOb8Gu66YcFD9vf5lrK6rPyv482giK9lmberT0Q0AEKzT50fpi/8Sh2y+dZMcsob4yP7de0kicvk90eQt8cVDHgGpnKWwy1jfv9QqiYEmcd522/p0QJG6mIHHd2I7EVe12JyOPxDWZN/uAl3Xj3yTNgDw9KQcpEjcxHsFqxp2W5diMRU3otC8W+rWZpgQEiAb/ACNInJqT3CCbHlz9x+cGt1+6f4ZbPz+xzJfN0fF63lCy4RkLG9EJSE6glO3Ut1fPP81n6v2hyY4Pt9/aiElcs8QQMd97mgybt19U3/j65b7FBcay/eLgeExOu42BsUHiZgoS142tSFzwhgW/xPmyce4E5/al+nar+l/dAJEyLQ4h5SBF4iYmkIkTGimRcaplb2Rs+a/j3IxlO1i7gStUNLFwXrOPiblInHvM5catn4eyzw6Kw2h/65mxzT6y91eVoYvN2RWxejlCqY8dp17Sfy/2CFGk1Pvev72MEqdQY9JeZmSstW1qr9mfv+mblHE2LkjcTEHiujG9xMXaHJC45ttwfdB7Ap0RgPVTrMf2N+uWp7hO9w5+qaQcpEjcxHjHUBXAjfFXi9x7fIIQuyP6+JEVwMxAVwmeCmLaa7o4KsbOxJ1w+0IvofnL/SKlEbxmyy5mIPeLiV3091RzQ6iOzpxS1suWGHv7mxLari0nG04Xh8c3c070tG0jO5ZIGV8wrPmyec3XblfImnoG9oevfobE1e87OK7eX60r496so1X/VombD0jcTEHiujG5xDmTqE5I4jaTibxWBcDAekI90ZUBtg6mdrCYgpSDFImbmNZMnBRrnFrvUX8ftgQmNV6NEjjmo2LUkFnijLq7GRJv/aPFPr5D9XWloz3Im/Wr6mZ/Xk09/+r9We3bzWk+o6+N7FIct99Mmte1LwsHJ/Xr0nzjwC+U/s9x95MPp55lfWyJDUicfsZELVPtKTOLWvbYPi5kndiXHG/7twMSN1OQuG5MLXHxIBWRuLqvnNfUN8Wyj9UkuV8cnjzdSFz57jbxG4GUgxSJmxAtsPpLIDha77ODtF6848wIoL5MSiQTZcwRISnqRqrEhYgfyzqh+roCkSRxdX/uG6cHFZ7+LWXjoDjQsp5N/T370czeefaJU6RetohVdbX73MzEuZTzleqzsm7WPvHUtypmX9j7dzO+1PbcfWBk4tTfnv2ntr0ZB5qk1u+396f99xxA4mYKEteNqSUuTkziTJrJyE77a31dToT2ZNRx+zlIOUiRuG2xCfZG4CyxhEYLbiqAba6pku34ZEKog5t2GswIvJ4AaWAH1aAUdcMWiu1JnPtZQYk1SvWequ/rfvc8GsYp33mf4hkntf2kJE7LLina2ub2m0nzev0ZZV1PesTL7hd9jvKIWqxOvjFo1LOUxvoO07K/lHQGJC4kr6qfbClWaHJaSltzKral7VsCiZspSFw3ZiVxdX+1T1Rt61SUAWGLfZtykCJxU6NkahOAysB9/KA4aAKoFZw0maoyCp7TY03Rs0WB1xRlMAwHNFcoQlLUjVlJnHd5Cq64bJb72mFLnDz2wy+Bsba5/Wayeb36PJEdVZdQv8lyuw72/BV6b4W77zb1kNc06T2lXvP0k/VlRa+DnUnzzrGNxGmCba+TZd/nAYmbKbOQuAWwbYlzvnkPPLDNidA3uU9HykGKxE2I/eWqPl0ldzdKgKzGkCsAMlZVALWDWSkExwKB3Tgdtgm03gDoQf/ceokbAAOnvHzYsrA1iXPqbAqWkWVX6znCO1Ti6i1Z2c62tnWTuNPF4Yk6o9Vcmxuf7wxpaupUfVmIfV6JMc4qmnqeOqy+nDj95emn5nNPF0cnN9cgSzH6pMnUBTJxal85mWQhMCa2ABI3U5C4bmxb4tZMykGKxE1P8wWiDiZG4HYycabcGBKnSYYtXNVnhLfTBEgnyCmqjKEjWlYAtD83hi4groyMLHHGKToz+JttUJkj+bcpHubn2lKi8MhJs1wTxbIe9eNkLMGKtc3tN5PNfq/asS9ZX98427xDO+VeY8hPNQ6kXsHPdaTYV0+7vzbbNYrzuZtspWyvGrd6P2rbrCWu2Z+evi0LEtc5PuQCiVshSNx4pBykSNyEBE7bu8FVC2AXVVmbTVZCBKEOvJaAVetUDz41Mj1OgGzeYVwioGc+/OvbEmcH5iG0SJwRkCPrGdj19eBk2EypC4ub1Xa9ft7P3KxfipYul75MXEhAgkX6RH2GJeCBbe0/9RnGFwb97IQjbMaXC/t0vjsGuklcIBNX19eug9FvirJem4f9Vqep6+1afVvRYUxMBBI3U5C4biBx45FykCJxAADTg8TNFCSuG0jceKQcpEgcAMD0IHEzBYnrBhI3HikHKRIHADA9SNxMURIn/6eEi5I4ezlleEk5SJE4AIDpQeJmigRRkThKvJx99tnFGWec4Syn5CldD1IkDgBgepC4mSIS99SnPpXSUi644ILiAQ94gLOckqd0PUiROACA6UHiZorKxB0dHVEiRU6n3uc+93GWU4aXlIMUiQMAmB4kbqYoiYM4SuIgPykHKRIHADA9SNxMQeK6gcSNR8pBumsSJ5MmhUKhbLsgcTMFiesGEjceKQfpLkmcTJoUCoUyl4LEzRAkrhvzkrjqZ2Tsn0NaKikH6a5IHAAApMWHXCBxK2SJEqf/tqDxu4Enq9/EdF/TyoS/15dykCJxAAC7Q0p8yAUSl0j5Q9a2NAR+BFmVNoHJzRIlrkH60u5fDW//T0jKQYrEAQDsDinxIRdIXApK1jpJxOni8JhI3EFxZL80MluVuLKP9ovDU2qBJXHl65E+iUpc1aedhXAEUg5SJA4AYHdIiQ+5QOI6YpzuC0rGhjJjZMjMdGxT4sp+Oq4rmiVxp6rTo0ERi0lc+d7t9Kki5SBF4gAAdoeU+JALJK4DlcBV8lD+OyQZDZW4mDIzHduTuKrdByfdZbq0Vf0ZyMZFJK4S48D7JiLlIEXiAAB2h5T4kAskLpEuErfNLJywLYnzS5Yrcb5sXPDGBuu07LbEWJFykCJxAAC7Q0p8yAUSl0i7xG1fNrYjcaHr1TwSF8vGhTJx2s0j+ycOiwPfeycg5SBF4gBM5NldcgzNqTzsYQ8r7njHOxZ3uctdnNfmUJhDloPsr67xIRdIXCKtElfLhnlKcVq2InHBGxb8EufLxpV4Ja6+SeT4YSOKrfthJFIOUiQOwEQ9TV+OobmU973vfcU555zjLJ9DYQ5ZFinxIRdIXCJt8hDMME3I9BKnJMvX6oDEhe7e9Ujc5vS0nu2LfeZ4pBykTMAAJkri5oTEFZG4OcIcsixS4kMukLhE4hK3/VOpwuQS5zxWRCckcZuspfGaI3H6+61TtnU2b8qsZ8pBygQMYILEpcEcsixS4kMukLhEohK3BanwMbXESabMK2klEYmzpUwoJW6/+pWGY4fFodHfgfWDApmflIOUCRjABIlLgzlkWaTEh1wgcYlEJW5ioQgxtcTFiUmcSXXadHOK1b3L1yNx9T6xl41FykHKBAxgkixx9Rdj/x3rkfUSzob0kbjNXKVutvLMP3adQnEjAnPIskiJD7lA4hKJSZwrHdthVhIXuoHBwCdn1TIzq+lbb1pSDlImYACTJInzXG6h5MmYF5wzIGmXtaRKnDPPK1nTP8+Z9wLXALfAHLIsUuJDLpC4FbJtiXOe+RaQ3nSQOIAlkyJx/i/M9g1N9d/2eglnRdIkzn9mwX5Gprfujmy2wxyyLFLiQy6QuBWybYkbDyQOYMmkSJwfW9r8UhVe7pImcX5sifOCxK2elPiQCyRuhSBx45FykDIBA5gMlzjrVGlQjLqfUh0scZ7Tvi51fezsXAvMIcsiJT7kAolbIeuVuO2TcpAyAQOYDJW46lIN93o0V+Ls065hekucfuNCUM7UtXCRmzIiMIcsi5T4kAskboUgceORcpAyAQOYDJE4dVODkfHapsRpOHLpo1PGzoQ5ZFmkxIdcIHErBIkbj5SDlAkYwKSvxHkFTghK3ISnU0u6fV7qL/owhyyLlPiQi0VJ3NVXX12cccYZxYUXXkiJlLve9a7Ft33btznLKcPL3e52t86TKhMwgEkfiVN3uzsCV70auIEhtNwFiYNcIHEtiMQdO3as+LVf+zVKpDz84Q8v7nGPezjLKcPLgx/84M6TKhMwgEmqxCmBczNtisBp07EeMRLK/BnPhQvUybmzth3mkGWBxLXA6dRucDp1PFIOUiZgAJMUifM+2NeHc61Zt6yYIknivNm0+vP0ZXWd9Lq3C6kLc8iySIkPuUDiVggSNx4pBykTMIBJd4lTYhQq1ilJ+yeuOgqckCpxgv2zW97Ps+tk17kDzCHLIiU+5AKJWyFI3HikHKRMwAAm3SVuOvpI3FQwhyyLlPiQCyRuhcxL4rpfYCyU33B932pnQspBygQMYILEpcEcsixS4kMukLgVshqJc05H+EvKNSZDSTlImYABTJC4NJhDlkVKfMgFEtcFRyYCdz3VF7Oq0lVccrMaiRPKPvVfS9Lp9wozk3KQMgEDmCBxaTCHLIuU+JALJK4N586nwF1T9i3txi3n07JVibP7wZa4iJQJmwuGN+uUd3VZp1ir9QIyPSIpBykTMICJkjiZy+dS5NFVInH28jkU5pBlkRIfcoHEtVAKhPNcH/s5QP5b2reRKRK2KXGucFkSF5LbcvlBcVhn4sy+M/u700/cjETKQcoEDGAiEidzeI5yhzvcoXxuqL08tZx77rnFLW95y+LWt76181qfInX67u/+bmd538IcshxS4kMukLheWA9tbHkApLN8ZLYncZWwme11T6e6z1mqhffYYXHUnE49XRwePyiONFFTz1my3zslKQcpEgcwHldccUXx9Kc/3V68dZ70pCcVp05t4RsmbJ2U+JALJK4XVubNOYVYE8o6jcy2JM6feXQlztcvKoPnXBOnhFn6u5Rm9fwoT39PQMpBisQBjAcSB3MjJT7kAonrgXM6LyRxPoGZgO1IXCVbblv9fWBm4zbv3Ujc5mGf/kymJnee7Y9FykGKxAGMBxIHcyMlPuQCiUtEXXhvSAMSF7lhIdAHnmyc4GbidHyna6cl5SBF4gDGA4mDuZESH3KBxCXgFTghJHEBURmb6SXOvtFDJyBxTSbNc22cdzsCEgcAFUgczI2U+JALJK4j6qJ6V0YiNzCElo/M5BIXktiSkMRFHt/SSJx5yjRUvNseiZSDFIkDGA8kDuZGSnzIBRLXASVwYRnzi4r/Qv/xmVripJ122zf4+6bCvY6OTBwAdAGJg7mREh9ygcS1oE6htomDs96WTqUKU0tcnJjEuSBxANAFJA7mRkp8yAUSF2Vzh6S/WFk2fnbLJVFmkTgA6AISB3MjJT7kAolbIduWuM1Deevi/OJFGN8jRrqUqcQu5SBF4gDGA4mDuZESH3KBxK2QbUvcEOKZuO2TcpAicQDjgcTB3EiJD7lA4lbIkiVu7qQcpEgcwHggcTA3UuJDLpC4FYLEjUfKQYrEAYwHEgdzIyU+5AKJWyFI3HikHKRIHMB4IHEwN1LiQy6QuBWCxI1HykGKxAGMBxIHcyMlPuRiURJ39dVXF8eOHSsDIyVcROBuf/vbO8spw8t973vf8v9dQOIAxgOJg7mBxLUgEnfWWWcV559/PiVS7nznOxd3v/vdneWUPKWrmCFxAOOBxMHcQOJa4HRqNzidOh4pBykSBzAeSBzMjZT4kAskboUgceORcpAicbAkPvzhDxcPechDSglZQvmxH/ux4vGPf7zdjK3zmMc8pnjEIx7h1HeO5QlPeEJx4sQJuwnQk5T4kAskboUgceORcpAicbAkLrvssuKpT31qmUVaUpkbdv3mXP7kT/6kuNe97mU3AXqSEh9ygcStkHlJXPXzWV1/OzWObGu/ONzivJ1ykCJxsCRE4mTMwu5w3XXXFQ960IPsxdCTlPiQCyRuhaxX4rb/s1wpBykSB0sCids9kLi8pMSHXCBxXTh1WOwbP7jeng0qZWPvoNiGbixR4qr+sn7Y/vhhcXjM/bF7Xzk4aW9xHFIOUiQOlgQSt3sgcXlJiQ+5QOLaOHlQSoIuIUo4guLQSN8OSlzZX7rkWhJXvh7ul6Pjer+eLiUu2M8l1fbj6+Qj5SBF4mBJIHG7BxKXl5T4kAskrgWRir1jh4WZR6rkwn9ar35tRyWu7C+jXyyJqwXXn5mTdd0+c7e5PVIOUiQOlgQSt3sgcXlJiQ+5QOJ6UYuaI3d1lu7YYXG0k6dTfVkx93RqKWW+vpEsnSNruhRX7zu0T7169sNYpBykSBwsCSRu90Di8pISH3KBxPWiEhNHOLRTibt4TZy/za7EhbJxldxZ17mV69bbrE/FlhKnxE2WIXEAg0Hidg8kLi8p8SEXSFwPKtmwb24wZcUvNNOwHYmrMma2mNn90iy1s3GW2Klr41RmUxe2MsupL7NlekRSDlIkDpYEErd7IHF5SYkPuUDiElE3NXilRMsI7ZzEBW9Y8EucT9r0fq0kzjw9a5yqRuIAsoLE7R5IXF5S4kMukLgEQgLn3pG5axIXu9EjIHHNtW7SR/Lvg+LguCt1ImuHdVZOlsnrTnbO+7njkHKQInGwJJC43QOJy0tKfMgFEtcRO1Pkey1UfO8Zk8klziOxG0IS5z6+RUma+vfBicPisLkubnOdnC5xUz/8N+UgReJgSSBxuwcSl5eU+JALJK4DStJSnkW2S5k4aatX0koiEmddR+dInNbfjrhJ5q6+azVlvwwl5SBF4mBJ6BInv6kJ6+aLX/yiIXFXXXWVvQokkhIfcoHEtaBOoaaKwi5JXJyYxJmEJc5z04h2/aH+vrFJOUiROFgCF154YXH22WcXz3nOc4onP/nJxaMf/ejidre7XfGlL33JXhVWwsUXX1zc8pa3LC666KLih3/4h4tf+qVfKm5xi1sUb3vb2+xVIYGU+JALJC5K/SiRYAlLGhJXE3iciA/7tLSSOO9NI83fXX7VIR8pBykSB0vg4x//eHHDG96w+Lqv+7riW7/1W8tj7yUveYm9GqyMc889t7je9a5X3PSmNy33+f3udz97FUgkJT7kAolbIduWOFvGuj7HzZdRq2TYc9NIs00R7dD1ePlJOUiROFgKT3ziE5vj9da3vjVZuB1AsnC3utWtyn0uWbhLL73UXgUSSYkPuUDiVsi2JS4bwRsmrAwpNzYADEKycTe5yU3Iwu0Yd7nLXcp9fv7559svQQ9S4kMukLgVshqJmyEpBykSB0tCro272c1uRhZuh5BsnFwbRxYuDynxIRdI3ApB4sYj5SBF4sDH5z73uXJszK3c//73L+585zs7y+dQOI5M7P4ZUh7zmMc4y4aUXSYlPuQCiVshSNx4pBykMqERfMBGJO7e9753OTbmVH7qp36q+Mmf/Eln+bYLx5GLxEG7n+ZQZFzvMinxIRdI3ApB4sYj5SAl+IAPJXFz49nPfnYpcXOD48hF4qDEwzkx13E9JSnxIReLkrirr766vC1a/k8Jl8c97nHFD/3QDznLKcPLwx72sOJ973ufPTS9EHzAx1yDHRK3HJC4eYLEtSBB9Mwzz6S0lBvf+MbFt3/7tzvLKXlK14BC8AEfcw12SNxyQOLmCRLXAqdTu8Hp1PFIOUgJPuBjaLArn8MYeaxO2+shkiWu/u3jTQk83Nxaz34WZBscRy6pEmc/u9P3cHT160R999PQcb0GUuJDLpC4FYLEjUfKQUrwAR9Dgl0TaAOS1vZ6jBSJ8/0cYSUK1nMd7Wc9JvyCi4LjyCVF4qr9ogl2LdX6PnAeql7vp5RxNGRcr4WU+JALJG6FIHHjkXKQEnzAR79gV/28XJMpcYJr2+vtdJe4+rOcz7B/J7l+KLe1XupPEnIcuXSWuFrG7Myb+VOG9n6rSN1P/cb1ukiJD7lA4lbIvCTOP0GEsH/c3nktYVIZg5SDlOADPtKDnRI0Gfs+gWp7vRvdJS6EJW0BgQguD8Bx5NJZ4gLYv0ftI3W+TR/X6yMlPuQCiVsha5W41G2NQcpBSvABH8OCXZuktb0eZrDE2adK7VOpofVa4DhyGSJxvlPhDp5Trm0MG9frICU+5AKJ64T1W52BbyddLh6dgvVKXPq3w9ykHKQEH/AxLNi1SVrb62GGSZyeDawJSVzinMBx5NJL4vQbTELjQ10LJyUyD/sYNq7XQUp8yAUS14p7XYfvAt4uF49OxVYlzpm4rQm7fD0sYabE2fIcKuHt5SblICX4gI9hwa5N0tpeDzNE4tQXWOOLqzMXKJC4ofSSuAaPcHvwxbkYw8b1OkiJD7lA4lrwZ36sSShwjUeX6w7GYJsS5z7ewN9XoQm8LRO3bVIOUoIP+BgW7Nokre31MH0lzitwQkjiWuYAG44jl2ES13UfuAmMGMPG9TpIiQ+5QOJ60e2b5O5JXNUv5mTu9pWTtdQCgVG20HdtpBykBB/wMSzYtUla2+th0iVOZXTsY74m8OU2uDwAx5ELEjdPUuJDLpC4ZLqlojtdPDoS25K4TllLITKB+DJxqi/t4nv/2KQcpAQf8DEs2LVJWtvrYdIkTs2Dnkxbg+fYD84TYTiOXDpLXCgbWl/uU8ankFRH5mkfw8b1OkiJD7lA4hLQs0XOgFd0uXh0ZLYjcdWk7h7w/oncl40TghJn9aW8397mFKQcpAQf8DEs2LVJWtvrYVIkruv1Us6X2UQxEDiOXDpLnBoP+pyqbl7Qlrnzsboe2Z2jQwwb1+sgJT7kAonrgzoIohNlt4zdGGxF4oI3LPglLjSZI3GwdoYFuzZJa3s9TGeJ0+9g9BX7Mgh+dis73SWuwr5cxbcPnDMeiWNo2LheBynxIRdIXE+qAd/yTTQgKmMzvcTFAkdA4gKSi8TB2plrsOsscRPDceSSKnFTMNdxPSUp8SEXSFxPkDiN0HUXJSGJ8z+GxSdxPmHzLZuClIOU4AM+5hrskLjlgMTNk5T4kAskroXQHabGNQQhidEvHp2QqSVOxCssVBGJ81xHV0ncQXHQZOmqdew+ROJgqcw12CFxywGJmycp8SEXSFwbnmyaunZgs6zbxaNTMbXExYlJnMnmmgxNiAOCrEtcKdTeU7n5STlICT7gY67BDolbDkjcPEmJD7lA4jqh7tRRxZWKcq0OF49OwawkziPBLqFr6sLPKbIlLr79fKQcpAQf8DHXYIfELQckbp6kxIdcIHErZNsSZ8tsv2xkLXCB927EzX+6dSxSDtJdDD6vf/3ri/ve977FYx7zmFWVCy64oDj77LOL/f39weXMM88szj333GzlB3/wB8vgObTItu52t7s5y/uUu9/97mWxl/ctu3YctSFx0O6jPuVHfuRHsu4nKbtMSnzIBRK3QrYtcTnw3eCgY94O73u0yTikHKS7KHHPfOYzS5G78sorV1U+/elPl7L00Y9+dHB5y1vekr1IFmRo+cAHPlAWe3mf8uM//uPFAx/4QGf5kAIb7L7pW/74j/+4uPGNb+wsH1J2mZT4kAskboWIxN3pTneyF0MGUg7SXZQ4afNll11mL1481113XfGgBz3IXgwBnva0pxWPeMQj7MUwM6655priZje7mb0YepISH3KBxK0QJG48Ug5SJG49IHFpIHHLAInLS0p8yAUSt0KQuPFIOUiRuPWAxKWBxC0DJC4vKfEhF0jcCkHixiPlIEXi1gMSlwYStwyQuLykxIdcIHErBIkbj5SDFIlbD0hcGkjcMkDi8pISH3KxSImzb2mmmOW8884rbn/72zvLKXlK14MUiVsPSFwaSNwyQOLygsS1IBJn385McUvORwVQ/KULSNx6QOLSQOKWARKXFyQOYEUgcesBiUsDiVsGSFxekDiAFYHErQckLg0kbhkgcXlB4gBWBBK3HpC4NJC4ZYDE5QWJA1gRSNx6QOLSQOKWARKXFyQOYEUgcesBiUsDiVsGSFxekDiAFYHErQckLg0kbhkgcXlB4gBWBBK3HpC4NJC4ZYDE5QWJA1gRSNx6QOLSQOKWARKXFyQOYEUgcesBiUsDiVsGSFxekDiAFYHErQckLg0kbhkgcXlB4gBWBBK3HpC4NJC4ZYDE5QWJA1gRSNx6QOLSQOKWARKXFyQOYEUgcesBiUsDiVsGSFxekDiAFYHErQckLg0kbhkgcXlB4gBWBBK3HpC4NJC4ZYDE5QWJA1gRSNx6QOLSQOKWARKXFyQOYEUgcesBiUsDiVsGSFxekDiAFYHErQckLg0kbhkgcXlB4gBWBBK3HtYucadOncpaHvOYxxT3u9/9nOVTl7Vit7Nv+ehHP1rc8IY3dJZvs1x55ZV2cxcDEgewIpC49bBmiXvTm95U3POe9yye9KQnZSuyvf/yX/6Ls3zKInWQtq2Rhz70ocUTnvAEp82p5bGPfezW95NeHvjABxbPfOYz7eYuBiQOYEUgceth7RJ38cUX24sXj7RprRInY1HG5NqQuUPmkKWCxAGsCCRuPSBxywOJWx5IXDpIHMBIIHHrAYlbHkjc8kDi0kHiAEYCiVsPSNzyQOKWBxKXDhIHMBJI3HpA4pYHErc8kLh0kDiAkUDi1gMStzyQuOWBxKWDxAGMBBK3HpC45YHELQ8kLh0kDmAkkLj1gMQtDyRueSBx6SBxACOBxK0HJG55IHHLA4lLB4kDGAkkbj0gccsDiVseSFw6SBzASCBx6wGJWx5I3PJA4tJB4gBGAolbD0jc8kDilgcSlw4SBzASSNx6QOKWBxK3PJC4dJA4gJFA4tYDErc8kLjlgcSlg8QBjAQStx6QuOWBxC0PJC4dJA5gJJC49YDELQ8kbnkgcekgcQAjgcStByRueSBxywOJSweJAxgJJG49IHHLA4lbHkhcOkgcwEggcesBiVseSNzyQOLSQeIARgKJWw9I3PJA4pYHEpcOEgcwErskcX/yJ39S/n+NEvfFL37RkLirrrrKXmWRXHvtteX/dYn7whe+YK21PFQbdIlTbV06auwpifvbv/1be5VFo0ucmlOWBBIHsCJ2ReK+9KUvFeeee27x4Ac/uHjyk59cPOc5zym+93u/t3jIQx5ir7o4RARuectbFhdddFHxwz/8w8Uv/dIvFbe4xS2Kt73tbfaqi+Pe9753cac73an4xV/8xeIZz3hG8dCHPrQ477zz7NUWh7RJ2iZtkrbd4x73KP9eOjLmbn7zm5djUMbir/zKrxQ3uclNVpFFvfDCC4uzzz67nDtkDnn0ox9d3O52tyvnliWBxAGsiF2ROEHaure3V3zrt35r8XVf93XFt3/7txcf//jH7dUWiQjq9a53veKmN71p2cb73e9+9iqL5NJLLy3319d+7dcW17/+9Yuv//qvX8XpRxFukZuv+ZqvKdsmbZS2rgEZe/pYlLG5BmSuuOENb1jOHbK/pG0veclL7NVmDxIHsCJ2SeLkG/M555xTTr5SHv7wh9urLBaRglvd6lZluyQLtxYhEM4///xmn93lLnexX14s0hbVLmnjWpCxJ2NQ2iXivQbpVjzxiU9s9tmtb33rxWXhBCQOYEXsksQJKht31llnrSYLp1BSsCYhEJQUrE0IlHivTboFJd5rkm5B5gzJoC41CycgcQArYtckTr45n3nmmeW1cWtDpECujVubEAg/9EM/VF6PtDakTdK2tSFj8MY3vvGqpFsh18bd7GY3W2QWTkDiAFbEUiRO6pmryCQsFybby/uWoROivb0h5TGPeYyzbEgZwtHRkbO9vuWxj31s8ahHPcpZ3rcMGfPyXnt7fYvcWCNts5f3LdLnQ7C3N6TIhf/2siFlCHKM2tvrW2TukDnEXj6kTAkSB7AiZAIZEtCmQtVzbiXHhCh3ydrbnUMZerekCMVTn/pUZ7vbLkPHvL6NORXp66ESJ/vc3u4cihwjQ5BjVI5Ve7tzKEgcAPRmaECbirnWM8eEKAHqX/7lX+zFW+Vzn/tcNombG0PH0jYCbxdySZzs+zkhx0YuiZsb2xhLOeasVJA4gJEYGtCmYq71zDEhInHTMnQsbSPwdgGJC4PEbcgxZ6WCxAGMxNCANhVzrWeOCRGJm5ahY2kbgbcLSFwYJG5DjjkrFSQOYCSGBrSpyFHP0yf2m2c8Sdk/cdpeJZkcE+IQiTs6vlfsHQ8H7rLNxw6L1JZuW+K87Tp5YOw/u3Tdn0PHUnLgdep9UPj2WNnmZp394vCUvUac6SXudHF4LHUfHBUHndbbsB2Jq+qZts/2ioOT9hpxksdSBnLMWakgcQAjMTSgTcXQelYCpwXGU4fFfmIw8ZFjQuwrcY2U2rKjUPKwMIlrbZeBEgl/kPUxdCylBF7VFj24V4HflLRymbafnPHagWklrpYcfWzVx1RsvynpSTnuppe4um1aO4L7TB939fGW0raUsZSLHHNWKkgcwEgMDWhTMaye7qRcLrUn4R7kmBDTJc7KgHiCppEhWIzEtbfLpo/sDBtLKYG3bo/TDisbVQd/M4sTem+YSSWurLPb79X+CBxTWkYyRXSmljh/G6x9VgurnXmzZbyN7mMpHznmrFSQOICRGBrQxuCf//mf7UUD6zkfifvqV79qL0qUOD3z5A/0etYgNagoUiXuyiuvtBclSlx7u1z8+7WNlLH02c9+1l6UIfCa9fZLQ3h5iEklLkBYqqs2H5wc/3Sq71hKkTg/3eqderwNH0vppM5ZOUDiAEYiJaBNwSc/+cnitre9bfmTNv/wD//QLB9aTye4dDj104WUCfF//a//VdzmNrcp3v72txvL0yROp112UoOKIkXirr322vJXBx73uMcVn/rUp5rlaRKn094uwdmnHek6lj7/+c+XPxv1tKc9zZC5wYHXOpUf2kep7UuRuJe+9KXFGWec4fyiwlCJ838x0vdnNxnSSZW4BzzgAcX9739/42f1hklct1P2vlPnbQweSz1ImbNygcQBjETXgDYlF1xwQfEN3/ANxXd+53cWF198cXH11VfnqacSt7qkTLYhUiZEkQL53cXrXe96xXnnndfI3NIlThBBlbZ9x3d8R/GUpzyllLlxJa5fFk5IGUvPetazyrF47Nix8t8ic8MCrysEwX0UOGUZIkXiRLylTTIW5ae/lMwNkrjANWFmRnF8iZM5Q37yS34f+eEPf3gpc30lTr8sIThf6DeuJI7HYWOpHylzVi6QOICRaAtol112WfHud7+7eNe73lX8/u//fvF7v/d7pXxIsHjrW99anDx5svjd3/3d4o1vfGPxhje8oXjd615XvOY1ryle9apXFa94xSuKl7/85cXLXvay8pv/i1/84nKCfeELX1j+zudv/dZvFc9//vOL3/zN3yye97znFb/xG79RyoD8rI0EF5kUv/mbv7n8nUL5CZ9YPeO4gdN7YXYPjh8/Xv7U1S/8wi90Kne4wx2aCV/JwVwl7txzz3XqHyrPfOYzy30l7brRjW5U7rMHPvCB40mc9zqybsiYl2yN3QZf+Zmf+ZmmXTe84Q3L36aVn8rqG3iVFDg3Ovj2UaLE/Y//8T+KH/uxH3PaECrf//3f34xFOd7kN4V/5Ed+pJ/EqS9Idjuca8f6SZwcJ3b9Y+VbvuVbmrZ927d9W3Hf+963l8Q1dMrc++aZOEgcAAyiTeLe+973Fv/zf/7P4td//ddL0RLh+j//5/8U//f//t/it3/7t4sXvOAFpZi96EUvKk+ByrZ+53d+pxS4V77ylcWrX/3q4rWvfW3x+te/vhQ9+cb/5je/uXjLW95SiqAI4Tve8Y7ine98Z/EHf/AHpTBKneSbtEzAkt15whOeUAbTWD2jhAK+E2DSEYkTQf3whz/cqdz1rnct6/JN3/RNxXd913cVz3nOc0pZmqPE3eMe93DqHyqyr5XsiJw+9KEPLX7lV35lNInzn7brhoyvn/u5n3Pa4CsyvpUQyFj8iZ/4iVIS+gRen8A1yz37KPV0qkicHKd2G0LlXve6V1mfG9zgBsWtb33r4td+7dfKZckSFxI4737sJ3HnnHOOU/9QkblF9pW07Ru/8RuLe97znsWv/uqvDpO4rvsj8a53JA4ABtEmcdtAJmzJ5jzpSU8qPvGJT5TLBtUzmNFIDyg2KROiiKzIqcibZCq//OUvl8vnmolLOZ0qGZyv/dqvLeXtQx/6ULlsvNOp/U+lCilj6Qd+4AdKOX3iE5/YXGOVHnhVhsYVuPLVwA0MoeUhUk6nvuc97ynlVORNvnx96UtfKpcnn06NPcbGunzBLd3alno6Vb7wyVgUebv00kvLZX1Pp+ogcf1B4gBGIiWgTcWP//iPFx/72MeMZYPqOWImLmVC/Ku/+qvi2c9+diNvijVInGSAlLwpRpO4gfstZSzJdXD6BfJCWuBVAhcJ/t4vGS194CFF4uSaOLlsQcmbIknilMAl1LHPF6dUiZMzB5Ld10mRuNAxY2R/vfssMtcESBtLeUiZs3KBxAGMREpA2ybD6um7ViXPNXE5JsQ1SJyP0SQuFEA7MmwspQXeKvC31dUdn52yPhYpEheis8R1ukbMx/gS5yNF4nzZNHXn6WZZvc/0Yyt4WjlMyljKRY45KxUkDmAkhga0qchRT/1Os/QMgp8cEyISZxNvVx/B0Rk6ljoH3rbTidZ+McdnevumlDjnWLJKOBO1AIkrqb/ktewPux9S2iV0HksZyTFnpYLEAYzE0IA2FXOtZ44Jsb/Ejcd2JW5cho6lbQTeLkwpcVOyHYmbhm2MpRxzVipIHMBIDA1oUzHXeuaYEJG4aRk6lrYReLuAxIVB4jbkmLNSQeIARmJoQJuKudYzx4SIxE3L0LG0jcDbBSQuDBK3IceclQoSBzASQwPaVMy1njkmRCRuWoaOpW0E3i4gcWGQuA055qxUkDiAkRga0KZirvXMMSEicdMydCxtI/B2AYkLg8RtyDFnpYLEAYzE0IA2Ffe73/3KH4+fYxnaf/IbsfY251KGIEJx+9vf3tnmHMqd73zn3rIi+1tkZ44lh8TNseSQOHubcylIHAD0ZikSJ7/NKfWUwDunIj+wLb8fO4Q73vGOznbnUP7rf/2vdlWTkG08/vGPL8XC3va2S6+fl6qRh8nOtcivLwzB3t6cyhDkGLW3N6cyJUgcwIpYisTNtZ45JsS1nk4VcpziGwNpW1+JU6fA5lZy9LXKDM2t5MjEybFqb3cuZUpyzFmpIHEAIyETyBzlyGau9cwxISJx05ND4uZGjr4e0i9jwTVxeckxZ6WCxAGMxFzlyGau9cwxISJx0zNEVrYReLuQo6+H9MtYIHF5yTFnpYLEAYzEXOXIZq71zDEhInHTM0RWthF4u5Cjr4f0y1ggcXnJMWelgsQBjMRc5chmrvXMMSEicdMzRFa2EXi7kKOvh/TLWCBxeckxZ6WCxAGMxFzlyGau9cwxISJx0zNEVrYReLuQo6+H9MtYIHF5yTFnpYLEAYzEXOXIZq71zDEhInHTM0RWthF4u5Cjr4f0y1ggcXnJMWelgsQBjMRc5cgmSz1PHhT7J04bf+8dHxb0ckyI2SUuQzvnK3Gni8NjB8Vmi/L3fnF4yliplSGyso3A24UcfT2kX8YCictLjjkrFSQOYCSyyNEEOPUUMdlTwfyoONjbK/bscuyw0FSmWvP43kZwOsjN6RP70e3lmBCjEjdRO22mkbiqPQf1s5Klzk7b9jyCduqw2G/6ZA0Sl0dM433djSH94ueoODDGp+xzva3tzFXiZG5QY1f9bXx56kD+sdROjjkrFSQOYCQcOZopTj09cqNPqFUg9AmOFjDb5Mb4jHp71vo5JsRUicveTg9bkzirnpVEe4SmyTb2E54hshIPvNX+UMHc+BKgFXMf5hHTeF93I9ovnrFot8sdh/X7muXzlLhyP6k6lvvC0zbnGKr2tdqXSFwYJA5gJBw5milOPT0BxQmMweUV5cTtTMwbjInd87eQY0IcJnGx5RVt7fQxF4mLLa+QbaQLT1RWWogHXo/E2WJT7lPP/hoopvG+7ka0X1rHYugLhZ61WorE2f1fS6szDjeZRiQuDBIHMBKOHM0Up56tAUXQAmodOLuWclueTJw9SeeYEIdL3MB2epiTxG0CbC0JnnZ4i0cmFFFZaSEeeDtIXGR5RT8xjfd1N6L90mkshpbXGBnHbsxD4iLLa4xLGDoSH0vjkGPOSgWJAxgJR45milPPTgElLAaCP0NlZUG0Uyu+7eeYEIdLXIZ2WsxJ4sw+sAkIT8sp5KistBAPvN0kbtOmfGIa7+tuRPul01jU219nr7qWwP6ajcRpbS7Xt+sfLL5tVcTH0jjkmLNSQeIARsKRo5ni1LNTQImIgXU9i7m8mnSriXojD75t5ZgQx5W49nb6WIzEyWs+sZm7xAVFQegnpvG+7ka0XwaPxXAmLnYqcj4S58/GK/yZOOknt72K+FgahxxzVipIHMBIOHI0U5x6dgookUlXBX9nwlaTrue9zrp5JsThEuepq6K1nX7mJHFBEdIE1X5vTAqEqKy0EA+8GSSup5jG+7ob0X7pNBbdfaHjzwrH99cyJC4g3i3HWXwsjUOOOSsVJA5gJBw5milOPbsElPpUqLPcWV+bnOU95WTumbA9k3uOCXGwxA1qp5/5SFxVZ3e5R5C0vpJtuf2xISorLcQDb0eJC2YX+4tpvK+7Ee2XLmPRd9w0KNFx14ntr/lIXKjNmpza+7XlOIuPpXHIMWelgsQBjIQjRzPFqWdrQKmDvzOBVuv6g4yZ7fCeTrW2l2NCHCZxw9vpYy4SV+0DN6Da+8ZE+sR9j05UVlqIB95uEucbS4KzfoKYxvu6G9F+aR2LsS8U7v7dtDW+v2YjcWX7Pcud9bW+aTnO4mNpHHLMWakgcQAj4cjRTHHq6QkozgXF9uRZB5ig2HiyHWXgUdvzBN0cE2KqxI3RTputSZzdNo+oVeu5yzfIdmOvt8hKC/HA20Hiyn3qis5QMY33dTei/eIZi92+UISltSK+v+YhcfWxFzjW7H2paDvO4mNpHHLMWakgcQAj4cjRTBlcz9C3aEeMwsHER44JMSpxqWRq5zQSl0rLqVWtfbHAKURlpYV44PVInCOm7v7JIaY5+jraLx6Jc9rm7Juw2DW0nHLcjsS5bXPGVEDGddqyp/GxNA455qxUkDiAkRgsRxMx13rmmBCzSlwm5ilx+YjKSgt5A28+Mc3R10P6xSV8St/OusZEZwqJSyWYNbUFMCKnQt6x1I0cc1YqSBzASMxVjmzmWs8cEyISNz1DZGUbgbcLOfp6SL+MxRwlLhfbGEs55qxUkDiAkZirHNnMtZ45JkQkbnqGyMo2Am8XcvT1kH4ZCyQuLznmrFSQOICRmKsc2XSpp5yicU7dBK63OTpeX5ekvd5cvxJ4j48cE+IoEifX6zhtaL84XjF3iUvZ1z6GyMo2Am8XcvT1kH4ZCyQuLznmrFSQOICR6CJHc6C9nv4Lv8MXFtfr14H/UF+v+SHydnJMiN0kbvP8sC7Lve1uedyBzqQSV15HpO27+oJxpzR1T93XLkNkZRuBtwud+rqFIf0yFkhcXnLMWakgcQAj0S5H8yBaT0/QryTMdwedZKJ8y6siEmBfdO27m1CRY0Jsl7j64nfnAnDfck/btEyj3d6QrE4mcc2F4K6UNeiPfEje1/bGKobIymiBd2D2tLWvOzCkX2IMyZzOWuLsLyA1Xb9QjDaWIuSYs1JB4gBGIipHMyJaTzvDVGfS3Gc02QGxDvxGIDkqDrS/2ybjHBNiVOKU5Bw/MJ/LFVruZKnq9ngCpts/G6aQOHX35cFx/dEVNuYjO/rva5MhshINvPbdiVbmUxdpe1x5x5rd3gixvu5KrF/su2WdutaUbTTqbI/JeqmvvR7Gl7jNlyF3n8VeCxxDnmMtRHQsjUSOOSsVJA5gJKJyNCOi9bQDnQT24weeiVQL7HWwLdfTsjanT8j7NgGnuXYuQI4JMS5xR8VR+fmVcG4kLrDcCZgicQfFgUdovAGoZhKJOym/UGs/f8zCfq3PvvYQk5U2woHXty8sAVVtaXvmWo/saayvuxLsF99+8GU6VaZU7aMMmdOxJc6UTnOfhV+z5K4sVf/Ysmv0h0V4LI1HjjkrFSQOYCSicjQjovX0BfYmUOhyUAf2P9BOzzXfmjdZuaMT+3Ugtt/vkmNCjEpcgy0IoeV2nTeZRTvzsW2Ja7AFocHKwgmp+9ojBUJQVjqQEnh1CTCFQL+W0a57v+xpp75uoXu/2ONOqPp8X3/uXWB/ue0I76+xJc7GzSRu2Lxm11f+ln1o70tPH2ikjKVc5JizUkHiAEYiKkczIlrP4Ld963oqe+INXM/SiEFk8lXkmBDzS5yVBWhEwJQiN5BumIXEGfuupu++tuguKy4pgdcM+rqQ6n/bgb9f9rRTX7fQvV/scbepmyFB9jHUI3M6rcS57dqgv2bXt5K4A98pYrsPNFLGUi5yzFmpIHEAIxGVoxkRrac9Sdp3lzYZjfrbsn3dkiM7VVD1TsgWOSbE/BJnC4EeMDfBR4Kuu72KWUicLLeDfeq+3rxi0F1WXDoH3nqcbYK+uf9EdsISl5497dTXLXTtl+qUoVXn+u9WifO22ZaiDVNJXHPq2h5z3tfs+m7Gm7OP7D7Q6DyWMpJjzkoFiQMYiagczYhoPe1J0g7sDVpgtwTBnnjLIOWZzG1yTIjTStyGuUuc97RWn33toaus+OgWeOuMaFPXNokLfaEwM3j2ONXp1NctdOqXOhtqt0X97UjcwMzpVBKnKOsfOGY2r1X7xWzbZrw5fWCP45puYykvOeasVJA4gJGIytGMiNbTniSDgV3LFpw8MgOM/n4tUxeSHEWOCXFbEmdneXS2L3Gu9JT02Nc+OslKgPbAawucYMpY++nU9Oxpp75uobVfPAJn340ZFRh7f3XInE4tcd7T+M5rtnS69W+OL7vNGu1jKT855qxUkDiAkYjK0YyI1jP2bV/HugZOnSI5OFHfqSrv0YOUcTrMT44JMb/EhbI6OgFJqtm+xNntqum5r21aZSVCPPBW9fbVaZN5E/T+b5O4DVuVuLLvXbmpTq3aWal63LVJXIMrQYrJJc47Hmua19olriHY5raxNA455qxUkDiAkYjK0YyI1jMSKOwAUy6v5cyeWN3rfAQJsG7gUuSYELtJXFciQmBfCxgQBWFSiUshdV8HiMpKC+HAW59iC5w6M+TAEIXIPrOIZU9z9HWwXzp8oVEkZeIa7D7YMLbEmaftzX0Yfq27xMVOgYfH0njkmLNSQeIARiIqRzNirvXMMSHmlbg8zFbiMhGUlQ4EA68tyR5ZVtlfKbmzpzn6OtQvtiDHRNmRuA7viWVOx5a4Rs68fR96zVpeFn/9zQysSXAsjUiOOSsVJA5gJOYqRzZzrWeOCRGJm56QrHQhf+C1s1D9sqc5+npIv3iJZOJsMQyJzvgS14dYJs6Wcr/cCfnHUjs55qxUkDiAkZirHNnMtZ45JkQkbnqGyMo2Am8XcvT1kH4Zi3lKXB62MZZyzFmpIHEAIzFXObIZUs/NT2fZ35DNEsoExMgxIcYkrqm7dgdgc12UdVeg9q5NJsdzOmtTwtf6TSJxTVZGy2o0mRs707Fhc3G/75SWVkLXpg2UlW0E3i5E+7ojQ/plLJC4vOSYs1JB4gBGYogcTcmQehoS55We+MXHMXJMiDGJa0611cJ2qF/YHrtIXJM4/zphSRImkbhGSOu6nNBPvcX31UbiAqeq7NN4FkNkJRp4ZT9pF8Xbsh26MSGHmLb1dRdi/dLvC8XwL1HjS5w2jnxfIkJjSdvX9qlhswTGaNtYGokcc1YqSBzASAyRoynpVU87C3X8oFcQiZFjQgxLXDjoSeDUL5Kvyn5xwf2t9Y7PNxPn1r8uEhjtfSf756nPsK4Pk5+m8rxf306AmKy00RZ41ReCUnDk8TXGxfD+gJ5DTGN93ZV4v/T5QjH8S9T4EqdJaNnHh8YXnOBjXSyJ867jXO9o0jaWxiDHnJUKEgcwEr3kaAsMqWcwiGjZg1gQiZFjQgxLnKKWOSMAmm0xMzzhTNymnfPIxAmVzJl12ewzV17CwqMFzBbhictKnFjgDWZkZH/YNylIuf8F2cS0S1+3Ee6X9C8Uhxfl+RI1usT59otqQ/lQX3v5fYsLjGX7xcHxwH4vCxKHxAGMxBA5mpIh9ewicX3JMSFGJa4OMOWPhjeBRWRBfkR8ExwM6ekkcXGmkbg6QGriUtbt1GH54++hLE8niWshLCvtdAm8Sub07IyRrbHGXqc2tYhpvK+70d4vqV8ouh1/sXE5usQplMzpfaxl25wvPpFM3KYP4mOyy1jKTY45KxUkDmAkhsjRlAypp8oSHJwMZxPUN+pQZipEjgkxKHFlUKnr1AS8TRA9agKHHShUOw+KI89pSaMEJHZ8iasEzs4KNlm5k55ry9Q7a0HaP3HkyZKYxX+Kq4ushGkLvFUbDooDlZ0q2yF11UTFkIOOEtdCuK+7E+2XXl8ouklcjEkkrj5ONpcfVO2RYyx4OryTxMVpG0tjkGPOSgWJAxiJIXI0JX3quTm1ZYtQjf13D3JMiEGJU5TB0xPIVYbKuBjblDM7w2H/HWJ8iVNUdXYDngr4VibKkDNbcOy/w0RlpYVY4C0FzpLPTVZuIzH2fsghpu193U6wX3p/oRj+JWp0iSvHlZXt1LJyvhs6StQ6dfvd9mglkEGNjaWxyDFnpYLEAYxEHznaBkPqaU7C4WuOQsExRo4JMShxKkjYpQkkVcCUjI9Zd0sWmsyJXcLCM77E+a41krIJ5KUESWbECoCbrMem/e52wtdYCUFZ6UCXwCt1dz9fZXK003IZxTTc191p7ZfOXyjyfYkaXeIUUndPfdR424i3JqOBbLH9d4guYyk3OeasVJA4gJEYIkdTMqSejcR57jxT2KdDupJjQgxKnGAFFm8Gxwk8G4krg4lxh6TCPm1nMr7ECRIMtX1hB3U9+6PR7Kt6feMuSUXkbkmhVVYixAKve4G/LmiaVFv7I4eYxvu6G8F+6f2FYviXqNElLnTJgfry0NTbGouyXJe40J3gzrG3ITaWxiLHnJUKEgcwEkPkaEqG1FMFkerbsXVxcs1cJe7opPW4Dfuia28AtE5F2nJUMgOJO3lUyH+bU2x6fbRMXSATp4TWm/XYksS5p4ftTFrVXru+OcQ02tcdifZLry8Uw79EjS5xqu7aOLPHlH6avKGRuHpOMZ5zqAg/VkWIj6VxyDFnpYLEAYzEEDmakiH1LIOIXChfBtPQaTxP0OxAjgkxJnFCc02RZNRUNkZdiK0Cv1H/KnCU1+no1/c4ZcsSJyhBLYO7ylrUYqdf56cFxyrgb7J4oexXTHiistJCNPCeOiqOjMdSmMLS1DWQiRsipq193YFYv/T7QjH8S9T4Ene6ODp5uhI539hp2hzIxKkvSdqp5A1InIDEAYzEEDmakl71bCbfg+Kw5flosSASI8eEGJS4OjDagbsKNraAVVLTPOxXz3jMMhNXi45dL0dIK8przJqH/ZpZjz7CE5OVNloDrxKaOqNW7SuzvaXMWVmtoWIa7uvutPVL+heK4V+ixpc4QdWrHlt1fapjTcsk2qf/yxsfzH5wij3GNVrH0gjkmLNSQeIARqKXHG2BudYzx4QYlLgtMr7EbZc2WYkRC7yV5NhyXGUWbQErBaF52O9wMc3R18F+6fGFYvOw32FfokaXOF1CNWzRLin7YfOw3/0Thy3P8SMTJyBxACMxVzmymWs9c0yISNz0BGWlA9sIvF3I0ddD+mUsRpe4LbKNsZRjzkoFiQMYibnKkc1c65ljQkTipmeIrGwj8HYhR18P6ZexQOLykmPOSgWJAxiJucqRzVzrmWNCROKmZ4isbCPwdiFHXw/pl7FA4vKSY85KBYkDGIm5ypHNXOuZY0JE4qZniKxsI/B2IUdfD+mXsUDi8pJjzkoFiQMYibnKkc1c65ljQkTipmeIrGwj8HYhR18P6ZexQOLykmPOSgWJAxiJucqRzVzrmWNCROKmZ4isbCPwdiFHXw/pl7FA4vKSY85KBYkDGIm5ypHNXOuZY0JE4qZniKxsI/B2IUdfD+mXsUDi8pJjzkoFiQMYibnKkc1c65ljQkTipmeIrGwj8HYhR18P6ZexQOLykmPOSgWJAxiJucqRzVzrmWNCROKmZ4isbCPwdiFHXw/pl7FA4vKSY85KBYkDGIm5ypGNqqdMPnMqOSZECVD2dudQckqcve1tlyGyso3A2wUkLozscySuIseclQoSBzASS5I4mXzmWIZOiPb25lSGImJhb3Mupa+sbCPwdgGJC4PEbZB+GDpnpYLEAYzEUiQOYC7I8SKyM8eSQ+LmWHJInL3NuRQkDgB6g8QBpCGZqjmXIdjbmlMZgr2tuZUpQeIAVgQSBwCwOyBxACsCiQMA2B2QOIAVgcQBAOwOSBzAikDiAAB2ByQOYEUgcQAAuwMSB7AikDgAgN0BiQNYEUgcAMDugMQBrAgkDgBgd0DiAFYEEgcAsDsgcQArAokDANgdkDiAFYHEAQDsDkgcwIpA4gAAdgckDmBFIHEAALsDEgewIpA4AIDdAYkDWBFIHADA7oDEAawIJA4AYHdA4gBWBBIHALA7IHEAKwKJAwDYHZA4gBWBxAEA7A5IHMCKQOIAAHYHJA5gRSBxAAC7AxIHsCKQOACA3QGJA1gRSBwAwO6AxAGsCCQOAGB3QOIAVgQSBwCwOyBxACsCiQMA2B2QOIAVgcQBAOwOSBzAikDiAAB2ByQOYEUgcQAAuwMSB7AikDgAgN0BiQNYEUgcAMDugMQBrAglcXJQUygUCmXdBYkDWBEicXJQUygUCmU3ChIHAAAAAK0gcQAAAAALBIkDAAAAWCBIHAAAAMACQeIAAAAAFggSBwAAALBAkDgAAACABYLEAQAAACwQJA4AAABggSBxAAAAAAsEiQMAAABYIEgcAAAAwAJB4gAAAAAWCBIHAAAAsECQOAAAAIAFgsQBAAAALBAkDgAAAGCBIHEAAAAACwSJAwAAAFggSBwAAADAAkHiAAAAABYIEgcAAACwQJA4gBG45JJLKBQKhbJDZRsgcQAj8L3f+73Fc5/7XAqFQqHsQLn3ve9th4FJQOIARkAk7l/+5V/sxQAAsDI+97nPIXEAawKJAwDYDZA4gJWBxAEA7AZIHMDKQOIAAHYDJA5gZfSVOJkMKBQKhbL90hVZF4kDWBF9JU7eJ5MBhUKhULZXLr/8cnt6DoLEAayMIRLX533b4Oj4XnFw0v13w8mDYm9vz1MOisMT+87yzftPF4fH9or9E6eNzZ2W9xw7LMylfmRd+/0NkXodaavJNpw25eLUYbHva0uwbmZx2yZ9tl8cntIWybaO6y0KcVQc+Ori5ag42LM+J0Tg871jpS+hfuyMtMfc7zrlmPP0vz0Oj457+qTZl+Hthyg/19N3G2L19owFL7FtDGz7wnnkIx+JxAHsMn1lrO/7tkGrxAlWIFfryf83ImKJgUdkDk4cFvt2MKllJhhsPMWVH4UEvrwSJ23cfLYV6HrJRyW3jRR4+ileQsFW+t9etyr7J95Tf2ZCqfd31X+uIBpjpVc/1Njtr7djjwdznHnq6y1hufFJbyMy0h7vNvyfHR6PLV9E5HPUcdX0w35xeMIdE1Vf+z/fX3q2fUUgcQA7Tl8Z6/u+KTClRA8QkdfsQKu9Rw+2RlCvg0j1ugQIXfK6ZRmiAdDLGBK3qacT6JLlpQ7CweyMp18CmTAXNzD78XxGEK0/Tx5U+8IzFuLC0ILarqD1p77v28dBPBvlx+0vZ/8623Xf09TNEL+2Un2Oe+zo29/sp/gYtuvYBbcdbtuXDxIHsOP0lbG+79sGQzJxTVbp2GFxpJ06ql6vhMXYnrEdO2DZgS5S6vf5pNMWingAbCebxNVBfkhd4riB2Yvsg2OHxaG378z+1WXcFuTNPh4Y/EuJO6zqrvrT6itD4rwSGS7GOLVfbxUZW5DcPo4LpvulYoO9bfO4ceoqbXnmlG1fPkgcwI7TV8b6vm8bdJY4J0C4klZmFo6/2Bs09k8ceZdX27KCnSFHdRBS8te8Vi036+sGzewS5znVtSmhQBjPfvll1FP0jFzHzI8pGC3S5ZGnLqcTqxLZbow6E1f27UnZtwfFgX0tZdPW/eLwIi1zZ4/Zcpzq+0u95mu3K2RqX+sZMr34Tiv3lrhTIq7qc+q2GxlXTyZOz1qO1HZtiXN8Lw0kDmDH6Stjfd83Bb4ApUucNzC3ZeLKdV150gNO9fehk30w8WcN/IHEzWT4yC5x0Uycv/7RYmfPrEDdoF8/pf6232th74Nq/wb6rBb1TV+pthwUB/W4MPoxVM9UAqdTW/F8sXD6UtFxu87+LT9jrEycsHl9c1weFEeettl9b7+eve1I3KQgcQAj0FfG+r5vG7Rm4nwBo0PwMGXRDlR6sYOH9n61beO0Xk0wE2Vub1qJCxHPxBmE5GioxJWnUffdfizxZGtKcT9oRNnoR8+YqLKp9r5oKd95n+JMe5k6NW8vt+vXYMqGjGGn/zz1rYp9OlP/DK09TT/HJc79EhQosh/t8VvuW136PJk4h7Havg6QOIAdp6+M9X3fNmiVOINNsC8DVkQqzGydBAwtAMYEpA46ZTCyA51zetDGlaVwAOzGbCTOyob6+sZXqm1p+yDwaBin3P2C+mYUS+L0/VPTPm4ieDNxdpbVlSc9UyjruQLlk1Ud+zOs/auu1VP9peoVkTiX7pm46rOr7fsk1vyMkdu+EpA4gB2nr4z1fd826CZx6lqozcRfriuZmiaw20FBbasOGMGMgPk4i9BrinjQdIPTmiTOuzwJt3+a5d52WBJXPiLGL4G9+9h3Y4OxnythMbevxqNe7P4NtbXGs++a/dtkfjfb0CVrDImr6rOvZVtDY2bktq8IJA5gx+krY33fNz6+AGBKnP3a3t3PM4NEeVquurtR3le+xxEA+Rz1HjegSMCQC9h9QaYUORXImuxTVe9WUWiC7wafxBmf0YLZJ9uTOOdUWdM3+rZN4XGl3N0XzXJvOyyJq7dli4v7Od1R2yoloryxQdVDZZvsLJRCH2ObPij3rbctFvU49orMyfrLidNfbj/ZfWHSUeJOHRaH9bEUOi1tfsaIbd8scU+xLwwkDmDH6Stjfd+3Dbpl4rTAUsuPsa6diTNO/ZmBcCMjdpCoBVMPLsZ2NnXw19EfnFyJ82V2wmwzE2cIpP45lqz6xbfcgishAyRO1cN3uq9rf5pY/aL3p5G5NftO1WXzmdZ21Hu9barwibyzf53+qsdoVLB02iROG/Pl2JVrFvVT4HZ9Jmy751haGkgcwI7TV8b6vm8btEpcHRTs5e66KsAdFD9fBgRL/Lzbqde5/wXFvhaodXmxP7cSGLWuHVT9Qc+tZyywJtAicYaEdcz86RIXwul7Q+qs9kWkrhGzYP3U+vV+qtexs09Ofboi9dYyraUQHT+orvUz6qNe3y8uuL/1uBlVf89+KPvft25Z3DHgiIzdlx7Z3WQS9W13KFIvNX4sKfdva9q22/t4iSBxADtOXxnr+z4AAMgDEgew4/SVsb7vAwCAPCBxADtOXxnr+z4AAMgDEgew4/SVsb7v8xK67spzJ2aDcw1MoFjb3dx0oBH6fO+1UJtrhtxr0fy421DY17u1l6buvr7Rrw2r+2fTVv8dgUax+8C4di1cV71tm+uOwutLcfbBVBjXz1VEr43yrG88psN3nZ33gnn/RfzpxPvVLTk+s8J77PhobtgIHLsDcY+n1GPSvg4wD/Y4OjpufUZovAwAiQPYcfrKWN/3hfDdTaaWewOHZ0J0JndHzvyTt/M+Dfe11IAREK4E3M/RhEAXLf1ux1SJcPrKJ3FuG+z+MSTO3l5Ns0/L+rrb7E3Zz5E2NvVtFyGjT51xFpc4u09KPNvJSoe2Dyb2GcaXKutGiWD/Vq+pvgrd7GB/ntu/6cdkaL4ZgjNXGeOj5fjrCRIHsOP0lbG+7wtTT3LRH1+vSjlJp2bidMGpix5IzNf2i8M/MLdfPdne3KZx56MKNl3rVZZuAmMHJvsuO/3ZX+HAlJCJ87QhJj5l3ez+LX/Oyl1Xle1InF9EneBbLTX7q35uYPW3f1/vn3ix2+a6T32C4n5mf+wxMRjPGAgXW9qsvy2Z3/S3R+I8WdJwf3c7Js1lLSV4/LTjG0dqv/heywESB7Dj9JWxvu/LhicL4nxD17NLtuDUWSZ3cjW/MTvbbPvW78toteAPMptAaHyOLUt68LHbaATUlkyAp97m6TM7OG/W8QumFby17Td9PrHE6dkXf597ArnTp7FMnN1HdR94+tYddwM4Jb8G4RmLQ3DaFsLTZvvvYNvbJc633B5zbcdk1r724RyT/l/88I6vgSBxADtOXxnr+z4X61lrIcoArQUHT5BxJvc2iZPndTnClUniWjMZpqSZQcYMhN7PsajEwpMta9qckImz1q8+2w7OFXb/dJG4hlri9IBn9IMVHDevWW1RbVQSp2dzm/bXfaNJnDewe8aJPS7TJO6gFCxbLIOfn8zp4vB49XDitjEyJiEpLjO4AyWu3La2DXvMtR2T6vNCdXTHSj/MLz0anjGUCyQOYMfpK2N93xdEm+iqyVYPfFXQdgTNnoR9JSZxTSDRA69H4kT22k7dqM+xZaX5eaN66+V7TBlyA3pc4nyn5uzANZg6uyO/dVntC48gej5b1S12+rUq+8XhRZVsNW0vpU2TQH0MaFm7sg8tOS3roMaEIXXVa2UfS1uMMWbXqS6OxImItZ1OVX1kS1w1FmzxcPd5P/TTdbL9oEgk4htjsdK0zcmuDpc4e5upx6Td1+YNB/UXAt/nJlG1xdv39tyTESQOYMfpK2N93xfEmehqCaiDpzM5OlkQN1A6mTgr8DTbVBmcUhg0iVPvsesV+dZvS9zpU/WT7o2fGzKxg0y7xJmZneZ1uw/l72OHxXtiwuIrx4+qzzhRi676AfeyTnZQPl0cndSzHJrg6OvZfwt2wDf2g4kuv9W/Pes5799IwtGJ+mefNInz7QuzD5WImtIdz8RZfdm0uZIF9ZnBz09A30Y1Bk6X463KUqo6d8jA2sXeTw0tp+T1z2q2YY+XgRLX45g0+1r6qBau5guKvrZnH7YVqYs+v9h/W8Wu3xCQOIAdp6+M9X1fEFtAajaZHfsVF0fidOzt2z/91EiGBKKD4qhe391mPGBUgf2wW+D0ZQ+aEpM4e926jk0bNwLsD8ZCJCCrvgjcndr0iQpU2ucYglOeSnTratQ3KHGmfFQB1+yTzfb0zJhf4kosibPr1JSmDzfjQCcucbEs1KbP7X2ajFUvZ3v1vskhipvtRsaMoMl+eYq8bLvdB+kSV+6rejz2OSbLZSe6Ze779peMiYPj2mlba67xtSsHSBzAjtNXxvq+L4gnKMmkWk3IbkbEJzKhYgpOjS1xDbXE1X9VAcPKZgTky/s5Cl/7NKHw16XCDkzRTJzVTwZGHQIZmjrwHtXb80lcJUt+STTvlBWZdYO+Wd+AxNmv2X9rVJlOdR1id4nz9rm9/+q/zX2tS6PWd8d/vkXiNtj7NIVGaqxl7va0U829sKUtMGakv8q+kLbrsi/vdftg0/ddJK7+TG156jHpSp++HfXXgL6qv/TIdYmdxlRGkDiAHaevjPV9X4hGamoR8U2GvuClE5qsS+yJNChxZjbF3WaHb/2+Ouif3wS8btjb9AlsI0VGsNDbUp9C0k4r+QTLICBxp08cVhkqTxuUxG0CrfsZ3SVOvVcFbCUHZlBvxk6ixNl9aEiJwulTTVSTM3Eb7HHVtKENlSW1FttjJAvOsejfnyXNtZ/tfZAicdV+Mj/T7rv4MWl+KdPRt9O5/33UbW/aZcu9UwJ92AMkDmDH6Stjfd/no5Kz6tSbX6y64U7uGnVA0ov3syzBcrcZCxh2ANPwyEBX7DpEM3H6ZzQBv5Kg/RNHWlYjEpAVjsSZkqNEyKnbSdWHgcxN8ulUtU3fa1LqbSRKnHf/231o/633v1firLZ6hMvN+th/p+OOxaGovqvb1HXMOMeAp0+aY88jcc667vFkHw/RY9Kz/xTudobReUxlBIkD2HH6yljf97no35Tt4OwvZ/5/ZzrL4qW+E9IKzmrCtbMy5rdpO4jEA4Y9ieuBKSVgmHUy62CcslTtU1JhtX3/xHtqgdvUy26vU1Q/2b8G4RMSJU71naZSV7keqnqfP+g7/TYVdTD1y4JVjj2jeEY9Fu26xiUukIWy943Rl/b70snbp65UtvWZL2Pb/B3MxCXS45i0v/CYUmlvZxjBdiFxJUgcwAj0lbG+7wMAgDwgcQA7Tl8ZU++jUCgUynYKEgew4wyROAqFQqFstyBxADuMTAJ9JA4AAJYFEgewMpA4AIDdAIkDWBlIHADAboDEAawMJA4AYDdA4gBWBhIHALAbIHEAKwOJAwDYDZA4gJWBxAEA7AZIHMDKQOIAAHYDJA5gZSBxAAC7ARIHsDKQOACA3QCJA1gZSBwAwG6AxAGsDCQOAGA3QOIAVgYSBwCwGyBxACsDiQMA2A2QOICVgcQBAOwGSBzAykDiAAB2AyQOYGUgcQAAuwESB7AykDgAEwl0cysf+MAHmmK/NofCHLIMZF8hcQArAokDMHnuc59bBro5ldvf/vbF933f9xU/9EM/5Ly27cIcshyQOICVwQQMYCISd8kll9iLt4rU51d/9VftxbOAOWQ5IHEAK4MJGMAEiUuDOWQ5IHEAK4MJGMCks8SdOiz29/aKg5P2Cz5OF4fHuq7rkiJxR8f3ir1jh8Vp+wUvVb32jh/ZL3SGOWQ5IHEAK4MJGMBkCok7fWK/2NvbaykHhVKr0STu5IHxOe312i8OT5mbYA5ZDkgcwMpgAgYwmULihFK2vBkwNzs2jsQdFQed66/ai8QtGSQOYGUwAQOYhCSuylJtsla2xJWvB+WpFjPJZjVy5pOoej1rO2GJq7axf2Kztilxvs+oKOtb16VpW5mZs7Nv/uyggjlkOSBxACuDCRjAxC9xlVzpsmRLXHVq0hWmSpYO60yclWUztlEJly1wQlDirNOhgilxfiks36eW1XUw2ubD81kCc8hyQOIAVgYTMICJV+J8pxJtifMKk5K/o83p1FOHxcHxI22dWt6MLJ1JSOJ8p2Sd06keuXSufbMlz4cufhrMIcsBiQNYGUzAACY+iXPESHAkzidM6nSme02cer+sX2bB1KlM+3NCEuf7fG9dfXJZo2fXWk+l+qWPOWQ5IHEAK4MJGMDElbjAdWVeibKEqcngaRLXyJJ7arJEkzt1N6hP4kLX4LkS55NLwSOWNoHsmw5zyHJA4gBWBhMwgIktcSFZ8ktcT2EKXG+mcCUuIJYhibPlUpDP7HgqVl0v59zcwRyyKJA4gJXBBAxgYkqce/dnQ0jivDco5JU4n0wpHBGrUdfBVXXQrsNTxb5TVf4oM3H7WmZQlp8uTmvXBjKHLAckDmBlMAEDmOgSF5OlsMTZwlQuMSXOOGUaKpsbKUyJi4hlROIMuVSndAM3UlTr1o8cadZ3nxEnMIcsByQOYGUwAQOY6BInQuSTtJKIxFUStF/e0FCRMRMnn+uVtIqwxAVODRuPGKlPu9Y3Y5w+oV0TFxA/5pDlgMQBrAwmYAAT+5q4IFGJs8kocS3EJE6necyIWteQuRr7xgaVQdREjjlkOSBxACuDCRjApLPEeW9gCDGVxHluYPDge76cD2/mzoI5ZDkgcQArgwkYwCQscZtTjU3pIEIVvkeMdCmV2EUlztme/9q1zljbC4pnDXPIckDiAFYGEzCASVjihtCSiWshKnFbhjlkOSBxACuDCRjAZByJGwYSBzlA4gBWBhMwgAkSlwZzyHJA4gBWBhMwgImSuDmVCy+8sJQ4e/kcCnPIckDiAFYGEzCAiUhcrnK/+92vePzjH+8sTy0PechDym09+clPdl5LLU9/+tOLu9/97s7yIYU5ZBkgcQArA4kDGA8RnMsuu8xevFVOnTpVPOlJT7IXww6AxAGsDCQOYDyQOJgTSBzAykDiAMYDiYM5gcQBrAwkDmA8kDiYE0gcwMpA4gDGA4mDOYHEAawMJA5gPJA4mBNIHMDKQOIAxgOJgzmBxAGsDCQOYDyQOJgTSBzAykDiAMYDiYM5gcQBrAwkDmA8kDiYE0gcwMpA4gDGA4mDOYHEAawMJA5gPJA4mBNIHMDKQOIAxgOJgzmBxAGsDCQOYDyQOJgTSBzAykDiAMYDiYM5gcQBrAwkDmA8kDiYE0gcwMpA4gDGA4mDOYHEAawMJA6WhAjIksrTnva0WUrcIx7xCKeucy7XXXed3QzoARIHsDKQOFgSj3/844sf+7EfKzNJSygPechDig9/+MN2M7aKSNGjH/1op65zLfe5z32K3/qt37KbAT1A4gBWBhIHS+LpT396ccUVV9iLYcW86U1vKi6++GJ7MfQAiQNYGUgcLAkkbvdA4vKBxAGsDCQOlgQSt3sgcflA4gBWBhIHSwKJ2z2QuHwgcQArA4mDJYHE7R5IXD6QOICVgcTBkkDidg8kLh9IHMDKQOJgSSBxuwcSlw8kDmBlIHGwJJC43QOJywcSB7AykDhYEkjc7oHE5QOJA1gZSBwsCSRu90Di8oHEAawMJA6WBBK3eyBx+UDiAFYGEgdLAonbPZC4fCBxACsDiYMl8Mu//MvFVVdd1Ujcy172suKaa66xV4MV8epXv7r4yEc+0kjcpz71qeL1r3+9vRokgMQBrAwkDubOtddeW9z2trctzjjjjOLss88uzjvvvOL6179+8dznPtdeFVbEj/7ojxY3uclNijvd6U7Fne985+LMM88s7nGPe9irQQJIHMDKQOJgCVx00UXFLW95y2Jvb68sd7nLXexVYGV89rOfLW51q1s1+/yss84qPv7xj9urQQJIHMDKQOJgKYi4STCXLJycYoP186xnPauRuIc//OH2y5AIEgewMpA4WAqSjbv5zW9OFm6HUNm4W9/61mThMoDEAawMJA6WhFwX9fznP99eDCtGro37gR/4AXsx9ACJA1gZSBz4kJsGZGzMrezv7xfnnHOOs3wOheNow9HRkdM/fcsd73jH4txzz3WW9y2XXHKJXd2dAYkDWBkyqRF8wEYkToKdjI05FQnol19+ubN824XjyEQk7qlPfarTT9sualzvKkgcwMog+ICPuQY7JXFzg+PIREnc3JjruJ4KJA5gZRB8wEfnYHfqsNjf2ysOTtovjENXiTt9Yr/Y2zsojuwXvBwVB3v7xeEpe3l3OI5Mukuc9P1esX/itP1CgNT1TTqP65WCxAGsDIIP+Ogc7DpJXBV41aMimnLssDgqZcvzmlb0gD2FxB0dd+vglGOHha4RHEcmY0lcuV+1vm/fV+YY6DyuVwoSB7AyCD7go3Ow6yRxGyTohgP26eLwWOz1aSQuXg+/dHAcmYwiceVYS8iYnjxwxkDncb1SkDiAlUHwAR+hYOfIkSVxdqbEJipxHYK0X+Iq6do7vgnXZj1jUiZsMoXNOt661Otpn6PgODIJSlwpVnq/WhLnES+FPnbKDFyXTK41FkPjeldA4gBWBsEHfPiDnUeG7ExcGYTDmbmYxLUJoOCVOI9w2bJZnXZz5aCqz2GdifMJRb3dup0+gRM4jkxCElfuB6MPrT6v+9keI+X+VO9rGWMK33jyj+vdAYkDWBkEH/DhDXYeWXIkTmXFAjIWljg3m+bDJ3G+YG1LnF8OKoE4OKmdTj154JVUI0vngePIxC9xqr/dZXrf+oTbufatZZwIhvjVeMf1DoHEAawMgg/48AU7dQrLUBlH4nyZkvCNDc22nPf4cSXOlQDBkTifHDRSal8Tt6mPqlO1vbA8cByZ+CTOt0+8+88r3BW6sDf7pEup95tvXO8SSBzAyiD4gA832PmyKAGJi2TjQpm4TaZlvzg8cRCUJUfiAtdQeYXBloPmvRuJa8TAU/cSTe707XMcmbgS5zkVX+KROJ9wV0td2bbwZd903HG9WyBxACuD4AM+7GDnO2VZ4pW4cGbNK3FqGyf0zJhnPUfiQmIQkLiechBsuwbHkYkjcQHZDkmcI9z1fjDXc0/BKwlX487OHtvjetdA4gBWBsEHfJjBLhBohZDEqVOolvy4Eqdl7fRr7gLbNSTOudNxQ0jilFyadUDicmNKnCtbG0Jjq36P2ofatYmqqPfoolbtq/3NuuW4Oo3E1SBxACuD4AM+9GAXFCIhIFuCnRURHIlz7gDdyJTvczcSFxMD/3vrV0w5KLEkzjhlGirmtjmOTAyJi8h2WOJM4VZjybueIGNHPXLk+FFw/yNxSBzAqiD4gA892Il4+SStJCJxSo4OTm4Cbylxx1RAlkd7aIHZkji1vp4F20icbNsN0opQEC8ROTh2UBwZzyoLSQaZuD7oEueeBtWJSFzodLlxqr7O+Mr+O3m6kbjy3R7xQ+KQOIBVQfABH52DXVTidFQGTGXPPDc/eCTOFiznxoYAUYlzQOJy41wTFyQmcSbNzS+R58WV+0rPzlqnzzuP65WCxAGsDIIP+Ogc7DyB1MEnZ+UyS7J861l0lTj/DQwhkLjcdJY4zw0MLoGMnIdyvwdOsQudx/VKQeIAVgbBB3yEg52WUVMlEjSTGCJxngvfo2JpsJE4dQquU9HEjuPIJCZxm8fJuP3YB3OfxcdPeFzvBkgcwMog+ICPrQS7IRI3iHgmrgscRyYxidsmWxnXMwKJA1gZBB/wsZVgtzWJGw7HkQkSN0+QOICVQfABH3MNdkjcMkDi5gkSB7AydjH4XHHFFastb3jDG7KU//7f/3sZ7ESY5lSUxM2t7OJxFENJnN1P2y5IHBIHsCp2Lfhcd911xY/8yI8UT3/601dXzj///OKMM84ovu/7vm9w+Y7v+I5if38/W3nkIx+ZpYjESTvt5X2K1CvXtqTs0nHUhkic3T99y13ucpdyv9vL+xYkDokDWA27KHEPetCD7MWr4E1velNx8cUX24shgEjcRz/6UXsxzIynPe1pxSMe8Qh7MfQAiQNYGUjcekDi0kDilgESlw8kDmBlIHHrAYlLA4lbBkhcPpA4gJWBxK0HJC4NJG4ZIHH5QOIAVgYStx6QuDSQuGWAxOUDiQNYGUjcekDi0kDilgESlw8kDmBlIHHrAYlLA4lbBkhcPpA4gJWBxK0HJC4NJG4ZIHH5QOIAVgYStx6QuDSQuGWAxOUDiQNYGUjcekDi0kDilgESlw8kDmBlIHHrAYlLA4lbBkhcPpA4gJWBxK0HJC4NJG4ZIHH5QOIAVgYStx6QuDSQuGWAxOUDiQNYGUjcekDi0kDilgESlw8kDmBlIHHrAYlLA4lbBkhcPpA4gJWBxK0HJC4NJG4ZIHH5QOIAVgYStx6QuDSQuGWAxOUDiQNYGUjcekDi0kDilgESlw8kDmBlIHHrAYlLA4lbBkhcPpA4gJWBxK0HJC4NJG4ZIHH5QOIAVgYStx6QuDSQuGWAxOUDiQNYGUjcekDi0kDilgESlw8kDmBlIHHrAYlLA4lbBkhcPpA4gJWBxK0HJC4NJG4ZIHH5QOIAVgYStx6QuDSQuGWAxOUDiQNYGUjcekDi0kDilgESlw8kDmBlIHHrYc0Sd/LkyeI5z3lO8Zu/+ZvZyjd90zcVT3nKU5zlU5bnPe955ZhcG9dcc022/XXPe96z+J7v+R5n+baKtEvat0SQOICVgcSthzVL3H3uc5/iFa94RfGOd7wjW3nuc5/rLJu63PWud12lxF122WXFox71KKe9fcub3/xmZ9m2yoMf/ODiiiuusJu8CJA4gJWBxK2HNUvcYx7zmOLKK6+0Fy8eGYtrlTiR5DXy9Kc/HYnrARIHMAJI3HpA4pYHErc8kLh+IHEAI4DErQckbnkgccsDiesHEgcwAkjcekDilgcStzyQuH4gcQAjgMStByRueSBxywOJ6wcSBzACSNx6QOKWBxK3PJC4fiBxACOAxK0HJG55IHHLA4nrBxIHMAJI3HpA4pYHErc8kLh+IHEAI4DErQckbnkgccsDiesHEgcwAkjcekDilgcStzyQuH4gcQAjgMStByRueSBxywOJ6wcSBzACSNx6QOKWBxK3PJC4fiBxACOAxK0HJG55IHHLA4nrBxIHMAJI3HpA4pYHErc8kLh+IHEAI4DErQckbnkgccsDiesHEgcwAkjcekDilgcStzyQuH4gcQAjgMStByRueSBxywOJ6wcSBzACSNx6QOKWBxK3PJC4fiBxACOAxK0HJG55IHHLA4nrBxIHMAJI3HpA4pYHErc8kLh+IHEAI7BLEvdzP/dzjcR9+ctfLp71rGfZqyySV7/61cVHPvKRRuI+9alPFa9//evt1RbJM5/5zOJLX/pSI3HPe97z7FUWiYw9GYNK4mRsroE//dM/LY6OjhqJ++xnP1v89m//tr3aIvnlX/7l4qqrrmok7mUve1lxzTXX2KvNGiQOYGXsisS9+c1vLm50oxsVt7vd7Yrv/M7vLG5zm9sUN7jBDYoPfOAD9qqL40d/9EeLm9zkJsWd7nSn4s53vnNx5plnFve4xz3s1RbHqVOnyrZIkf12z3ves/iWb/mW4kUvepG96qKQMXfjG9+4HIMyFqVtN7/5zcsxunQe97jHFV/zNV9T3OUudym+53u+p9x3Mi6XzrXXXlvc9ra3Lc4444zi7LPPLs4777zi+te//uKyjUgcwMrYFYkTnvjEJxZ7e3tNWUsmTrIdt7rVrZp2nXXWWcXHP/5xe7VFIkFS32fnn3++vcoikbGnt+vhD3+4vcoikazpOeec07TrFre4RXHppZfaqy2Siy66qLjlLW/ZtE1EdWkgcQArY5ckTsRGMlYyAYv0iPysBV0K1iIEgi4FaxICXbzXJN2CLt5rkW6FiJu0S7JwcvnC0kDiAFbGLkmcoLJxa8nCKZQU3PrWt16VEAhKCtYmBEq81yTdghLvm93sZquRboVk4+TU9xKzcAISB7Aydk3i5AaA7/iO71hVFk4h18b9wA/8gL148YgUHDt2rHjjG99ov7RoZAxKu2RMro2f/MmfLO5whzvYi1eBXOf3/Oc/3168CJA4gJWxFImTes6xDJ0Q5U4+e5t9yx3veMfi3HPPdZb3LZdccold3SQe+chHOtucSxky5mWf29ubSxnC5Zdf7myvb5GxaC8bUobeQPDUpz7V2eZciojVVCBxACtDJpEhAW0qVD3nVHJMiCJxEmDsbW+7SNDMIXEiBva2t12GjnnZ57Lv7e1uu0i7hiD7SvaZvd1tFxmHOSROjjV729suaixNRY45qy9IHMAIDA1oUzHHeuaYEJXEzY2cEpefo+Jgb6/YP3HafqETQ8fS1IG3C9KeXBI3N3JK3NyYeizlmLP6gsQBjMDQgDYVXet5dHyv2Dt2WPQL7zqni8Nje8XBSXv5hhwTYneJGyYuqUwpcadP7Bd7ewdF1xBbrj9gH3cdSyG6Bt60dsn+3S8OT9nLuzGtxKWNxdj+6tJHU0pcl/oYnDwo9gbst65jKRc55qy+IHEAIzA0oE1F13rmk7h6go5sK8eEmFviyvZrzx+ryn5xePKw2HeWW0Vr63wlruqHjVxXfzttsYreb13HUoiugTe9XRsZ8O/H8P5aqsR12dZ8Ja76orepe4exeNzcctexlIscc1ZfkDiAERga0Kaiaz07SVz57dkNiIddAqcWcHJMiLklrqFFQOOBdb4SV+5fKxCatPdT17EUomvgTWmXLXGuIOi4bVyuxLX301wlrq1dNr6x23Us5SLHnNUXJA5gBIYGtKnw19MNJqbE2VkbE5mE7ffGA5MZWHNMiEGJc07TWG0tX48Em6jExQShYjyJqz5bD2Zm4IzU7ZRkEzd94g+i7piw8Y+l7vgD74B2lWyyOM06VnuN9SwZGFXiBo5Fcz91yFaVZbO98SRuyD7TpVv1x1G1Pactm2Jvyz+WxiPHnNUXJA5gBIYGtKnw1tMTPEyJqydpJ9Cr1+wAaQecODkmxJDEud/arcBZBng3KDTEJM4rByajSZzns+3sR3Uq0ZYCnzj4BH1LEte7XerLw2EtBb521tut97ktcMKYEjd0LKYcUz5Gk7je+8y8Xta/jo1fCL1jaURyzFl9QeIARmBoQBuDt73tbfYibz3d4GJLXCTYywTuCSzmtUj7xeEJ+9TrZrJOnRAliFx11VXOMlfifBlEV06iwSMicXag8pEqcf/7f/9ve5FX4nwB3amPVwo8GRyPzPj6ycY3lkL85m/+pr3IG3iHtuvgpJbZOXlgrqPkzXnvhlSJkwcM2w+89ktc/7FoHkt1CYzJGKkS97znPc9e5JW4oftMb5czvzj4b5TyjaUxSZ2zcoLEAYxASkCbgp/92Z8tbnSjG5U/j/Wxj32sWe7Us55c7UnRkbhANq6arDeTcDVJa4FUfUsvJa6e1Mtl/SVOfk3h277t24pf+qVfamTOJ3FOIClxA6cvwHgDp+dUmF+ANqRInPyG5A1ucIPivPPOK97+9rc3y12J87Qh0F6fFBivBWXA/xk6zlgK8IIXvKC44Q1vWNzznvc0fj7KDbz+z+zUriYbpI09hXbtpozzZsx69l2qxD34wQ8uf8xdfvpLyZxP4nxt8LbXMxYVYVmyx6n//SkSJ234lm/5luK2t72t8dumrsR52hBor7PPGvTsWj3PeNrkK2recsfSuKTOWTlB4gBGoGtAG4v//M//LL761a8WX/nKV4p/+7d/K+siE7BMdDe96U2Lxz/+8WUAtevpCwyCN8A72ThTZGRb5USsn55VwmYv07YtE+K97nWv4pprrulUJIjc5CY3Kb75m7+52N/fL2Xu5S9/uSVx/tMuoaATDDChTJwmBtUpPM97a4mTnxay2xAqj3vc48ptXu9612tkzpE4z+lvwRc4g1LgXJ9l4+8nHflViy984QtOG3zl/ve/f9mub/zGbyxl7p3vfKcbeIe0q3nvRuIawfHtP0Hbh2r7cmxIu+z6h8r73//+UnZEUuV4E5l7zWteY0lcnrHoO1bLZZ4sur1NQSTuF37hF5w2hIocT9I38iP1Z599dilzjsQN2WeK0DHW4M++6ThjaWSQOICVYcuRzTOe8YziaU97WvGUpzyl+Jmf+Znip3/6p4snP/nJZabsJ37iJ0rJ+vEf//HisY99bPHoRz+6eNSjHlUGgkc84hHlD3sfP368/E3Phz70oeW3/wc96EHFAx/4wOIBD3hAGSDvd7/7lf+Xv2X5f/tv/638EXf9W6v81qlZzyqI+CZHr8RZ2Tg7o1FJXHVRshNcWyROAqe0s2uRHwVX7RKZk/4wJC4QXEKBMy3AqAu5D5u2+vurkrjv//7vd+ofKrLu13/91zdtk4zjwx72ME3iQkIQCJxeKQjv9w2BftK4/e1vX45Juw2+8t3f/d2lwKl23eIWt7ACb452lUvdTJyGT4R05NiQ32G16x8rkvFW7RKhk2PRkLhMY9FX91SJk+Pfrn+oiGx/7dd+bdM2aeeFF16oSVyOfea5ptY5O6Cyc+p9br8hcQAwiDaJu+KKK4pPfvKTxZ/92Z8Vn/rUp4q/+Iu/KE6dOlV85jOfKU/DyKTw+c9/vrjyyiuLv/mbvym++MUvFldffXXxd3/3d+W3Yvnx8n/6p38qrr322vJzrrvuujLj9u///u/Ff/zHf5SZOB3JyH3Xd31XOfl++7d/e/HzP//z5bb1eoYmWiEkJUrcZII9Or5fHBzfBJFG6vYOisM6K9cEmRaJS5kQ3/KWtxTf8A3fYGSrzNOpSrK8LXMCQIUdKGo8Ele1UwKP5zSQ9Zkpp1MFkW/pQxEkEX4ZK0YmLpJBC+7POuOk2uw9Vezs61A/bWgb8zoip/I5kq369V//9XLMG4E3Q7sqhktcyunU973vfcWNb3xjI1tlnk71j4uKUB/7x6Kv7qkS1/V0qiBtkP6VrLd82fz4xz9uZuIy7LPNnKGK2p7eN/Vxdmyzbjm3nELiACATKQFtCn7xF3+xvL5KTu/ok9umnqEAUhGSOPU+IxtnZOIOi8Nym/V66jN0ibPEKHVCvM1tblNm7vTrxgyJiwSXaLt9UuBInCe4qPWdDEKaxL3xjW8sbnWrWzXypthIXEwIIoHTkAL17+GZuK5jXk4n3/zmN2/kTbEJvDnapbAkrt6n8bJ5f6rE3fnOdy7OPPNM47oxQ+IyjkWfxPmEzbdMSJE4uWFDThEreVNsJC7HPlP/DvWPmlOq7P7ByfBnInEAMIiuAW1K3v3ud9uLNvW0smE2YYkzg4krcZYA6eK2d1Ac1Fkgfb3UCVEymja6xDn1MIgETlvKhFLi9qu7GtWDjJt+CayvBaUUiRM++MEP2os0iZO6+wJjRThwqnYcFEeBYOkS66eKlDHva9cm8OZs17SZOMlu2+gSl3MsVnU/KA4sCbJlPIfECR/4wAfsRZrE5dxnFcapViXfxw6Lo1NK4uQFv/ghcQAwiJSAtk261jMmcTphibO+NetCZ70vx4TouzvVTyxwmlSBaBNYqr/14OEGWkEPoqkS58O5sSFANHB6ME+r2u9r76euYylE18Cb1q5pJc6H7+5UP+19rNiMRTvL6LZVH3/lPq6Ps1SJ8+Hc2BCg+z6r+kDPDPuvmzNltVpn0/auYykXOeasviBxACMwNKBNRbd61gIWCXaKTXAxM2zOJG5JnB5ockyInSUucNG4iU/O3EDiX89kSolzg5+Huv160PTTLhjdxlKYroG3U7saFiRxCWPRPYVYy4+z3JU49e8pJa7TPivbH95XG6q2xsZr17GUixxzVl+QOIARGBrQpiJYT+faoS6Tq5lRa6i3ZUy6hsSZQpRjQoxJnJlx6ian3diyxGlCpkos0MVw+ihYNuMiOJY6Egy8g9q1kTj7C0a01GNibIlz+rnXWKwFLvDejbiZx9moEjdon/lQp0279VNwLI1EjjmrL0gcwAgMDWhTMXo9PRf3V4Qn5RwTYkzixmPLErdlho6lcQJvPBPXxtgSl4O2bKIpr5ts2KgSt2XGGUthcsxZfUHiAEZgaECbijnWM8eEiMRNz9CxNHXg7cISJK4vSFw+csxZfUHiAEZgaECbijnWM8eEuB2JaweJCzN14O0CEhcHiavIMWf1BYkDGIGhAW0q5Gn0MpnPrcjDYIfwG7/xG+VT5u3tbrv85E/+ZPmg5SHILzbY251DkbH03ve+165uZyQIivDMreSSOHu72y6yz3JJnL3tbRckDgAGsRSJk5/eOv/882dXbne729lVTeLZz362s825FPmpoiGIxJ111lnOdudQRJz7IqIz1zIEkQp7e3MpOSTO3uZcChIHAL1ZisTNsZ45JsQ1n07NcYpvDJSs9EX2+VzLEFRmaI4lh8TZ25xLQeIAoDdzlCMfc6xnjgkRiZueHBIn+35uZWhfq36xt7vtkvN0qr3tbRckDgAGMUc58jHHeuaYEJG46cklcXMiR18P7ZexyClxc2PqsZRjzuoLEgcwAnOUIx9zrGeOCRGJm56hsjJ14O1Cjr4e2i9jgcTlI8ec1RckDmAE5ihHPuZYzxwTIhI3PUNlZerA24UcfT20X8YCictHjjmrL0gcwAjMUY58zLGeOSZEJG56hsrK1IG3Czn6emi/jAUSl48cc1ZfkDiAEZijHPmYYz1zTIhI3PQMlZWpA28XcvT10H4ZCyQuHznmrL4gcQAjMEc58jHHeuaYEJG46RkqK1MH3i7k6Ouh/TIWSFw+csxZfUHiAEZgjnLkY471zDEhInHTM1RWpg68XcjR10P7ZSyQuHzkmLP6gsQBjMAc5cjHHOuZY0JE4qZnqKxMHXi7kKOvh/bLWCBx+cgxZ/UFiQMYgTnKkY851jPHhIjETc9QWZk68HYhR18P7ZexQOLykWPO6gsSBzACc5QjH3OsZ44JEYmbnqGyMnXg7UKOvh7aL2OBxOUjx5zVFyQOYATmKEc+5ljPHBMiEjc9Q2Vl6sDbhRx9PbRfxgKJy0eOOasvSBzACMxRjnzMsZ45JkQkbnqGysrUgbcLOfp6aL+MBRKXjxxzVl+QOIARmKMc+ZhjPXNMiEjc9AyVlakDbxdy9PXQfhkLJC4fOeasviBxACMwRznykb2eJw+K/ROnjb/3jqdN8jkmxDEk7vSJ/eLgpPm30dYOIHFhpg68XcjR10P7ZSyQuHzkmLP6gsQBjEB2ORqJaD1FwPYOimqKPioO9vaKPbscOyxsjTk6vreRm1lK3Oni8NimjiJjTrv29gxh09+nliNxJkNlZerA24UcfT20X8YCictHjjmrL0gcwAhE5WhGROvpkThTbCqpcUVOltfvW4rE2W0o2263VzgqDup1kTiTobKSP/Bu9lXzdzOeu5Gjr4f2i48cWeF5Spw2dzR/7xeHp4yVWsk/luLkmLP6gsQBjEBUjmZEtJ6tEhdbXlEK0hIlLrJcYWQcO4LEhYkGXs9YtDOn3n0l72uWz1PijHF26rDYt9slxTmGhmeFx5c4c26Q48Vp155H0Mo+UPsJiWsDiQMYgagczYhoPT2B05U1TYjq7FXX4m6rIseEmEPi9PaHTrn6SzjoIHFhooG3dSyGssJ61mopEmePn1paHZEblhXeisRZbaiOK7u9+rW1SFwbSBzACETlaEZE69kaOCt8k7PCn4mLT8w5JsQsEucNqBv8mbi4KCBxYaKBt9NYDC2vMTI83cjR12390i5xkeU1/rEYZw4SF1teIdsItztEdCyNQI45qy9IHMAIROVoRkTr2SlwxiZh85SPuTw8MeeYEMeXuFBwQeL6Eg28ncaivl/r7FXX4h2/efq6rV86SZzW5lxZ4blI3Kb9dTbVaUOg+I7ZmuhYGoEcc1ZfkDiAEYjK0YyI1jM5cFqo65GcwBQXnRwTYhaJM9pv0mQY7XWkrb5t1SBxYaKBt9NYDItCSSATFzsVmaOv2/qlm8RFjrO63e5r8eNsLhLnHEMGgS9L8h7ftmqiY2kEcsxZfUHiAEYgKkczIlrPLoGzvhDbWe6srwWhFtHJMSHmkLgy6HiWu4FWa2tLcJmPxEkf6IEznh3tQpustBENvF3GYkwUdPH2LHcFqCJHX7f1y3CJC4jOGiROfRH0LfdtqyY6lkYgx5zVFyQOYASicjQjovVsDZz16Q9nkq3W9Qec9gk4x4Q4WOLKttvtjUlrRUwIhHEkztMe+9STr85GZqqLxFX7NbS9NllpIxp4W8ei0EV03HVELtxtVbh9nU5bv3STuFCb+2eF5yJx3uOveqW5HMN+b9txFh1LI5BjzuoLEgcwAlE5mhHRenoCpy0GzqRcS05sgm2bgHNMiMkSZ7fLF0hDYqcREwJhMomzg2Ko7p3vArTkp9yeuX6brLQRDbyesei0JSLYPgnYXIcVbrfb1+m09UsnifP0d4mzfves8Dwkrv4i6Cz3jGNtDLQdZ9GxNAI55qy+IHEAIxCVoxmRtZ6hQOMIYODUSU2OCTEucelUouepdy0OTdtsebLYmsRFlleETskpbHGy/26XlTaigbdV4kJZ4chp8RLZlme/1rh9nU5bv7RLXH382KITkVah7cvSHCSuOq7s9kaOt5K4eAvRsTQCOeasviBxACOQVY5GZI71zDEh5pa4XGxT4jYiVAuPk30MlCZjZWfizCDbJittRAOvR+KcetqSExG7hpZTjm5fp9PWL67EuW1zZCyUWdVoy1ZtReKctrmiVq3nLt8QF28hOpZGIMec1RckDmAE5ihHPuZYzxwTIhLnERNvlkcRyMRZp+SaQOzZfpustJE38FYC4ciPRyZiouP2dTpD+8UmmKWyBdCzj3TGl7hUWk6txqTWIu9YaifHnNUXJA5gBOYoRz7mWM8cEyIS5wngMYkTWfO9p5E4S4o82xoqK1MH3i64fZ3O0H4Zi/lJXD6mHks55qy+IHEAIzBHOfIxx3rmmBCRuICQ+TI49fslI2Vft9RcV+V5r73uUFmZOvB2we3rdIb2y1ggcfnIMWf1BYkDGIE5ypGPOdYzx4SIxLkSF7rA31nfdxcgEtebof0yFkhcPnLMWX1B4gBGYI5y5KNPPe3rU0LXFNlBvis5JsTBEmedXrTb3PXaHJutSVzgQvjg9VUl+l2AvtOpE96duiXcvk5naL+MBRKXjxxzVl+QOIAR6CNH2yC5nnZGJvRYkVoaFilxqu62COnY/dCRySTOEU53HyXfBWhdOG8L4VBZ6RV47Yv5rfGm38Rg17cLbl+n07dfzP1o7qfYa12ZhcSFrsUs92u/dgm9xtIAcsxZfUHiAEYgWY62xPB6hp7ZtV/sB+40ayPHhNhX4qqgv18cHPdksxp8be7GOBKXSr67AHX6yooiPfDa+8HKFuqi3VO6h/d1z36x6mucCo+9lsDWJS70ZakR8/T9pUgfS8PIMWf1BYkDGIHhcjQNw+tpB9LNxfBLPJ16dLKqr/eUZE3stTbmIXHj0EtWNHIEXn3MmeNvc/NGCjn6emi/lMQkNPZahG1KXOjLkvoScXC8X5sUOcZSCjnmrL4gcQAjMFyOpmFoPd1rqjan4JYocYqwqLnSmgISFyZH4N2MOevhxM7f3cjR10P7RYgdS7HXYmxV4gJflk6flEdR9xdTRY6xlEKOOasvSBzACAyVo6kYVE/PxfLN3YwDgkuOCXE0iRsYXJC4MIMDr3GzhZt5k/G4OIlTpxw91zRGX+vANiVOMdZxNngsJZJjzuoLEgcwAoPkaEJ619MjcPZPGK1R4srlPdqkQOLCDAu89U9xRU6fLlLiFOXxFpC12GsRkLh85Jiz+oLEAYxAbzmamF71DAQN+6L4pvgm6Qg5JsRxJK7fKTkdJC5M/8BrC5xg7yv7727k6Ouh/VIRq3/stTBIXD5yzFl9QeIARqCXHG2B5Hp6ng8WYn2ZuMDviyaAxIXpF3jjv5FqS1yXcauTo6+H9ktF7FrM2GthkLh85Jiz+oLEAYxAshxtidR6hrJtoSC6Konz/F5oKkhcmPTAG35USokuAj2lIEdf9+oXq77GDUSx1xJA4vKRY87qCxIHMAKpcrQt5ljPHBPiUIkbCyQuTHLgtR/06zl9Xz3KoiqpmSohR1/37RfzC5P55SH2WleQuHzkmLP6gsQBjMAc5cjHHOuZY0JE4qanr6wopg68XcjR10P7ZSzmIHFjMfVYyjFn9QWJAxiBOcqRjznWM8eEiMRNz1BZmTrwdiFHXw/tl7FA4vKRY87qCxIHMAJzlCMfc6xnjgkRiZueobIydeDtQo6+HtovY4HE5SPHnNUXJA5gBOYoRz7mWM8cEyISNz1DZWXqwNuFHH09tF/GAonLR445qy9IHMAIzFGOfMyxnjkmRCRueobKytSBtws5+npov4wFEpePHHNWX5A4gBGYoxz5mGM9c0yISNz0DJWVqQNvF3L09dB+GQskLh855qy+IHEAIzBHOfIxx3rmmBCRuOkZKitTB94u5Ojrof0yFkhcPnLMWX1B4gBGYI5y5GOO9cwxISJx0zNUVqYOvF3I0ddD+2UskLh85Jiz+oLEAYzAHOXIxxzrmWNCROKmZ6isTB14u5Cjr4f2y1ggcfnIMWf1BYkDGIE5ypGPOdYzx4SIxE3PUFmZOvB2IUdfD+2XsUDi8pFjzuoLEgcwAnOUIx9zrGeOCRGJm56hsjJ14O1Cjr4e2i9jgcTlI8ec1RckDmAE5ihHPuZYzxwTIhI3PUNlZerA24UcfT20X8YCictHjjmrL0gcwAjMUY58zLGeOSZEJG56hsrK1IG3Czn6emi/jAUSl48cc1ZfkDiAEZijHPmYYz1zTIhI3PQMlZWpA28XcvT10H4ZCyQuHznmrL4gcQAjMEc58jHHeuaYEJG46RkqK1MH3i7k6Ouh/TIWSFw+csxZfUHiAEZgjnLkY471zDEhInHTM1RWpg68XcjR10P7ZSyQuHzkmLP6gsQBjMAc5cjHHOuZY0JE4qZnqKxMHXi7kKOvh/bLWCBx+cgxZ/UFiQMYgTnKkQ+pp0zEcytDJ0QlcXMsuSTO3u4cyhBZmTrwdgGJiyP7HIlD4gBWx1IkTibguZYh2NuaWxmCjCt7e3MqfZEgKMIzt5JL4uztbrvklDh729suSBwADGIpEgcwF0R05lqGIFJhb28uJYfE2ducS0HiAKA3SBwAwG6AxAGsDCQOAGA3QOIAVgYSBwCwGyBxACsDiQMA2A2QOICVgcQBAOwGSBzAykDiAAB2AyQOYGUgcQAAuwESB7AykDgAgN0AiQNYGUgcAMBugMQBrAwkDgBgN0DiAFYGEgcAsBsgcQArA4kDANgNkDiAlYHEAQDsBkgcwMpA4gAAdgMkDmBlIHEAALsBEgewMpA4AIDdAIkDWBlIHADAboDEAawMJA4AYDdA4gBWBhIHALAbIHEAKwOJAwDYDZA4gJWBxAEA7AZIHMDKQOIAAHYDJA5gZSBxAAC7ARIHsDKGStwjH/lICoVCocy06CBxACtjqMTJhHD55ZdTKBQKZWZF5ncdJA5gZeSQOJkYAABgPsi8jsQBrBwkDgBgfSBxADsAEgcAsD6QOIAdAIkDAFgfSBzADoDEAQCsDyQOYAdA4gAA1gcSB7ADIHEAAOsDiQPYAZA4AID1gcQB7ABjS9zpE/vFwUl9yVFxsHdQHJX/3zNeOzq+V+zt+YuxjZMHxd7xI21BKqeLw2P7xeEpe3l3pK5muzSkfp427JXt3uD2TQBje/3rLZ/n1ilUqs/R2xl/f12vU4fFfsu+6dzuJGQ8hfpG9rdd36rsnzgsx6Gx/NhhcVq9U9qs/V0ibQx+lo0a7z5i9dI/8ag4sOtgEPuMDUfHrTpLO2S7HdoT3/exum+B4PGXWkdr/zjj2pzL7M/YfE54P9vHs/RzsG5qf9nLAyBxADvA9BInE5oKONXkZk9aIg72MiNQDZI4e8LV5ENfrk2WMbm0S1hO9HbXS4y+iUz0xsR9ujgdCbbJtAYGW45OF4fHtfXrgKm3OxqInHarbai+sfePrw982PW0scTdEJjNfillpRlbnrocP/Tvp7J+nvWDJSJdJw/CEtdBUPSib8eROEMO3S9Vep+17VNFfL0W2Rx0XGs4/Wfi1DHSp0Z/nDptHIcyDqrX/e1yPsd4j4Z2DKr3pEizFF97kTiAHWAsifOJTzV5uTJjoEuFMalnlLgmcGmBXf/cVrFpycR5cdvtSlykX3IRCVhNsdtu9PfpUgaadb37QbWlXWrK4OOROFcmeoq1sa9Dr2n1tNYv61ELvtRV/4LhBmkf/gAfxZGQWCZOXtsvRfTguO9zPO1uZDe2XbN93dqqrddlnGlF7e/048pDh8+2Ja5L23TML5rhcW5/jjpejP70SJyXDvOSDhIHsAOMJXEKJ+vSiJM58VUTl5tN2UzqeSXusMxKqLrUgU5t05gswxO0t9Tb8EvGTCRO7zsnMEQCe0tw7Bp8nTHRKnGx5Qp37Jhowi7YXxbKbWvbqPup3I/GWDOlzMhutfSPXXRBtF/rJHFNv6k6xfvIm4mT91l1cI43Sy68Y9snJw4dhNYZjz1okTKnji3r22zer/e72y5H1Ix1/F8gzbr5BNwqkb5C4gB2gMkkzglWdkCJBUFrorRFJIk6IJYT91E5kR5IZsmYDDeT5/6JF5sB1PjsKmg2k27zmpbFaXAlzZU4u92h4um7rth95wRN36k7U2ya9QyZsdtb4Qibb1kniav6Jxxsu0ic1Y/HDosj55q3ajvPeKrndJZa314uRfrFkgGjT8o2burXvCbL7UDsSIUlcepYiuwL+wtDtVzbj0b93XXtcWJLnLP/HInz9HeoePo/vB8jOO1qL80+8LzmLVqfmF8wPetqc4P0i/1aWaTtUYnz7BuFc+yaIHEAO8BkEqdhZgT832JN5DqwzBJX/tvKzkTxTdSh93Zpk903LRN2LroELEdoQ8HfLNKWJktj9HFMXrtKXL3t4H5vC/7tmTgphjzZQbL++9CWGBtfPwWCrZMV8rIZs2UfHDsoDroKkiEddv9Y+0Zrr3m6sI/E+eh2XNifnUa4TUEcaW6nlLK27XZBrrOLSpxnn3YYVwISB7ADTCFxasJRE/8miMcDtrnclrgXt09wdjn2jOIZznv2i8OTdpawKqGJ3ZAJXybFyTpqn6UF0a1JXNdMXIklcZHsT9MWe5uerI4jAQkS14hi1+Ld72bxfZ69H8t1AvvWP1bMtvjkJNgWQ1Z9+yQ2Vuz166XNZ+kZwfrfZbvU8koe9D5Jlbhgu0LFynCFZb0Nj/gEpLdpQ6LENXOaLtZ2e3yfU73b/eIYlbjIfraPMwskDmAHGEvi9InNCZAyaR4/cB5rEJ4MZT1b4oJTWwv+TJwdmNysxWbyLtfzZFucdhq4k7cpM5v2hftBSmRS74Ldd04gsAUgLRPn36bZn/0krgrO/mAbeo+fcj9KHxjiUmGMA0tOZPmmHe7+3KBEIrQ/W/ahvY+8+8TeplWMMa6Wu/Ut23Vc7/9yaavEOZ/Xlomrx4ScjjaPM1fYmv3TC0t81FiU/zfbNPddU+eAoKtStavevmeMGxivx/aXuS1X4uz1rRKpAxIHsAOMJXEKJ2CrSVoPGp4J0ZYqNxPXd5L33djgfhu2t+8LXHawcuus455KMvpG+/zwdtxtdKcSHbsN0VL2gSVxTb8kZOIsnPZ1kbg6wDrL6+2Zgc+VlfKVWsKbdct6yl2dUlePJGrtreoc60Oz/uZrdn3i+9EVIZ/Ehd/vrl8v9XwxKce1vm7Z5irLHZM4Z/9FJK7s94DQhPanffx1xyM+9nFlzR/N8si4ddqly6Gzv61itMUzPqMSF9nPkfoKSBzADjCpxKkJrz4l1iz3SJkTKHQ863dGTXzajQ36N3J90rfRZcH89u4GR4dyvbDE6eIYbrsn+EtfBOrrpbXvbAGQzwxL3GFzujwu5c2+t9cVWiWuDsz2Np2g1yy1AmX9fiMTs1ccnDADsd3n+v529omMH7kpJrif3IydKTNhTCktl3gkziMLevF8ju9OWt8xIJ9t18Hfzy7GenW/lll3qz6OPFqvOTIdWNfFEh9jLCrB1seftq9847bGab+17tEJz3j3bssemyZ6/zv7NFY8xzQSB7ADTCVx1aRkTa715OlMkGqS1yYpO4D6Jq0uuN901YRqZlCcCduaKM3tqPeGJ2dfINpInDmx2203iylATsBro7XvdGGo2iWyYn9ukHq/7ttZrRgeiXPa7amzLr4ltZhsirU/mtd9QdvOxEUyjdq+tPu/rJMxXq2grergDfBCLZiGHNoS149K4jxCrPV/005rnKh2dSmNhKjPUP2sjiN9uXqf8eXA3G92H4cJjJ2y6F84tO3p7TS+aLjFmRO0sXO6vK42JI86toCbbXXmwqZO9txZvd//JaICiQPYAUaTODtg+mgmIy24qMnNE7R1uYlNXmE239KbbTUXPbtyVE7cj7iv9ppeR0+7ojLirt9InPSD1l5DGAzsTFz8W72XgMQZQVq9rl/w7QiSrxwUP29d++auYxVPXbrg3bazLSU/HnERPIFWbVf2u7R98znS7/U+tT6nWkfarr2mC4H9uWp81es6bQm2o03wPeX4kdWGAM3+1cfvZn1HLgJ412sVVw3ny06PMa5T7uPqGHdle7+44P7atj3jQeG0K7CusX8MMd0sd/rHN69ox5v6otf8UkvzyxGb7frmCyQOYAcYTeIAYNE44jIB4S8wkAoSB7ADIHEA4GdgFiyVQJYY+oHEAewASBwAwPpA4gB2ACQOAGB9IHEAOwASB+vEvgnEQruZpLkOS7tYPXRtVnMzinOXoXtDAcA2QeIAdgAkDtaK8ZgLD+rC/VLY1DPjqleCD1k1Jc6/Dtd2wRxA4gB2ACQOlo/9OJeWYjx2wyr688z0cv8LzGWB3+PUPwNgmyBxADsAEgfLp+XUqU7gIbb6qdNNts19Hlg4E6fVgUwczAAkDmAHQOJgTdinUEPXtgnVg1nlt1P17Fn1M1TN89GsBzF3kjiAGYDEAewASBysjvJ0aPV8s5DE6b+YoNbZZOU2v5BgP/BWrVP95qjnNKpWfJ8LMBVIHMAOgMTBOqjvFrVOYxo/+u5BBM79VQKVZdMeduv8DJKdebP/BtguSBzADoDEwaooZUuJW/gXB0K/QaqyZ2UG7viB8/uYm9OplbQ1p2Kt4oohwLQgcQA7ABIHi8d3N2mslGJWZe42pzztTFp1x6t9SrSRuPqGh0Pf6dqTB0gcbB0kDmAHQOJgnajHjgROcZ46Ko5O6Q/sNTN2TaYukIkznjGHxMEMQeIAdgAkDtbF5plxm9OefiFrMnh1Rq0SvlrstF9u0N9XSZxsc3PjhJPp43QqzAAkDmAHQOJg8Wg3HQQzb4KStuNHzeNFrNsgSuGzBay8I7V52O9+cXhi8xw4MnEwV5A4gB0AiQMAWB9IHMAOgMQBAKwPJA5gB0DiAADWBxIHsAMgcQAA6wOJA9gBkDgAgPWBxAHsAEgcAMD6QOIAdgAkDgBgfSBxADsAEgcAsD6QOIAdAIkDAFgfSBzADoDEAQCsDyQOYAfIIXGXXHIJhUKhUGZWkDiAlTNU4p773OdSKBQKZaZFB4kDWBlDJQ4AAJYBEgewMpA4AIDdAIkDWBlIHADA8vnsZz9b/Od//qe92CBV4v7hH/6h+MpXvmIv7gUSBzACSBwAwLz4p3/6p+KrX/2qvTiK3MigJO5LX/qS/XLJl7/85eJP/uRP7MVB3vjGN5ZymAMkDmAEkDgAgDT+5m/+pvjkJz8ZLP/8z/9crnf69GnnNV958YtfXPzrv/5r+R7JfglXX311ksi99KUvLSXtqquuKv/+1Kc+ZWTmrr322uIv//Iviz/6oz8q/5Y2fP7zny/XOXXqVPFnf/ZnzboxZDttGT8fSBzACCBxAABpfOYznyne//73e8sHPvCB4t///d+Lf/u3fyte+MIXFu985zuddXxF3qNQIqckqwsve9nLys+U9a+44orys0XOFH/6p39aPP/5zy+e9axnlX+//OUvL37/93+//NxPfOITxYc//OFyucjdW9/6Vqeobb3yla8MZvpiIHEAI4DEAQDkRzJs+inOFP7f//t/xTXXXFO84Q1vSDr9aSPbUYjEvelNbypOnDhR/i0Sp+Z++QwlcZI9FLmTa+EkG3jllVeWRTJwgrRJZRpTQOIARgCJAwDIj0iTZNL6IhJ18uTJMisn0iTZMl/54he/WK4vp0Pt1+Satr/4i78oX0+RuPe85z2lfEpmT0RO5+KLLy5P26aCxAGMABIHANAPER29qGX/8R//UZ6mlP/rmTh7XVlH5KoNOX35oQ99yFv+6q/+qlznVa96VfHe977XeV1JWIrEXXrppY3EyelVudFCkGUXXXRR2a5UkDiAEUDiAAD6IVL0ohe9qCzvete7nGWq/O3f/m1ZXvCCFxjL5GYGkSkf8po6hdmF173udY1s+RBhlAyaOhV63XXXNadbfRInyPqyXbkmTr1HMnF9QOIARgCJAwDohwibyFjbMkFOi8prOiJJusRJtkyuRxPkdKhk0rryu7/7u+V1dCH+7u/+rhS1yy67rPxbPkuu25Os2h//8R8bEicZPYWIpMq8ffrTny5vbOgDEgcwAkgcAEA/fMIm4vWP//iPxjKhi8TJaVO5iUBIlbi3v/3tzfVxPkTaJBP4cz/3c+Xf8rnve9/7yseY6HenqkycZOlE3uT/ksX7whe+ULzkJS8p39MHJA5gBJA4AIB++CQuhGTJ2iROR5c4kUK5cUHdKCH/l7+lHB0dlcskw6auj/PR9Zo4ebiv3NggyHV28vw5eY6dZOAkQ9f3FxyQOIARQOIAAPrhkziRKnkMh17UNXF9JU5uTpBnyakH8krWTYos+8hHPlIuk///+Z//ubENna4S1wVubACYCUgcAEA/fBIny+TUowiaKnJXZ5fTqTqx06kicHbWTX6hQf0agw/J3v3hH/5h+dgRQTJ36lEhusSp6+N85e///u/L98iNGakgcQAjgMQBAPTDJ3GSiZObCGzGljj5uS11GjQV+YUHJXGSsfv4xz/uLXLNntw1K9nFVJA4gBFA4gAA+uGTuBB9JE6JldxYoF+L5pM4WefNb36zsUxHTsUeHh4WP/uzP1v+/epXv7q81k3qIIImv6vaBYkXr3jFK+zFrSBxACOAxAEA9MMncZI9U9esqSICl3pNnEiXeu6b/B6rfuepT+IEW+L0Bw2/5S1vKX/G6znPeU75t3yu3DAh17fJL0P89V//dXNHqq+IUMrrko177Wtfq31KN5A4gBFA4gAA+uGTOFkmWTSRLFXklw9S705VD+KVa93kVxJEshQicXLdnY3c3CDXrSlEBNV1cnLXqWTcfDc2yGtSP3m//aBivYgUSnvlmXSpIHEAI4DEAQD0IyRx9jIh9XSq8NGPfrR42cte5pzqFClUyK8oyLPlJFsmmTX95gbJ4ElRfO5zn/NKXAoipW9729vsxa0gcQAjgMQBAPRDHpSrMmaxZYIsk9d0YhInMiYZOPsBvrINkUQRuw9+8IPF61//+uYnvwQRP/X5cpOF3HmqyCFxcofru9/9bntxK0gcwAggcQAA/ZA7OS+//PKmyOlIuXZMX6aKekyH+lt+zir026kiWyJw6hlwcur0He94R/nAXVkuNyRIVk/uRpU7S9UpVPV7qEoW5UG9+mnXoRIn2T7JDOpi2BUkDmAEkDgAgH6ISMnPUNmP4uhSZN4V6fJJnJwu1R++K48s+djHPlZKmPoBex8iWZKlE4mTTN4LX/hC49RrV4mzM4myPXng8Ote97pS4qTeqSBxACOAxAEApCPZKMmK+a5/64rcTeqTuCFIdu+tb31reSOC/fBfkbh73/ve5Q/ZS91Dc7/cwCC/kyoSKEXWlb/lWji5AaIPSBzACCBxAAD90B/hsQSUxHVFMnLSxhztROIARgCJAwDYDVIlLidIHMAIIHEAALsBEgewMpA4AIDdAIkDWBlIHADAboDEAawMJA4AYDdA4gBWhkgchUKhUHajIHEAK0KycBQKhULZnbINkDgAAACABYLEAQAAbAH5wXP955vmiDyY9gUveIG9uBNLaN/SQeIAAAAm5B/+4R+KD3zgA+XPLl111VX2y7Oij8QtqX1LB4kDAACYEPm5Jfmxdvmd0LnTR+KW1L6lg8QBAACAlz4SB9OBxAEAAIAXJG7eIHEAAAARRGQuv/zy8t/XXXddce211zav/d3f/V15+lD4j//4j/J6sH//939v3nf11Vc36+rIuhdffLG9uOQrX/lK8cUvfrG8nkzWE/7pn/6p+OpXv2qvWn7G+973vvLf8r4vfelLzXtkffk7hKz/N3/zN2Udpc5XXnll8alPfcpYJ7Z91V4fvvZJfS677DJjmc6Xv/zl4oUvfGHx6U9/2lie0h9tyPtkW7IfBbl2z7cd2ad///d/X36mfL4gn/2v//qv9qolY4yRLiBxAAAALUhQ/uQnP1mKyZvf/ObiYx/7WLlcgrAEZAnuL3rRi4pXvOIVxdvf/vZSAITPfOYz3iDtkxzh0ksvLW8IePnLX14cHR2V0qMkQ4TDh0jDZz/72TJj9vrXv7545zvf2cjGn/7pnxpCofirv/qrcn1V37e85S3l58l7beQOU/lVAqmXb/siRjZ2+1Qb3vOe9zQCYyPX0b3sZS9rhEfo0x8+ZH+86lWvavpI9qFs6yUveYkjZtJWWS7783d/93eLt771rcWf/dmfla+J0P31X/+1sb4i9xjpAhIHAADQgsiEBF9dWFSGRoKzSIYIigRsQYmKPAT2D/7gD5r3KGzJUbzrXe8qs2M6alsf/vCHndcEkRmRH/1OUMlqCSIKPtn50Ic+VMqYqq8gn+O7m1TWfelLX2rIi9q+ZJl82w+17wtf+ELxl3/5l/biEpEsaaNOn/6wEckVKRMhs4VT5FftR+Ef//Efy2yg7DN9uZ6F++M//mNH/ITcY6QLSBwAAEALv/M7v1P8xV/8hb24RE5Byuu+03IS/CWw24QkJ4bIg2SrbEQOQneCijy84Q1vsBeXYiMZpy5I/T/xiU/Yi0tEQHzb97VP5EWKT1hEECXjZktWjFB/2HzkIx8p26BLWQgR0te97nVGNtBGRFedOtXJPUa6gMQBAABEEPEQwfBlXwQJ6JJh8SHvtWVG8ElOGyJSf/iHf2gsU3UL/eyTZMxEHnQk26TwSYWO2r7vlKwgMigSaeNrn7qeTTJ7dl/+3u/9Xnm6NAVff/iQ7f7RH/2RvdiLrBsSYsU///M/l6dLdcYYI11A4gAAACJIkI3doSkBWl3/ZBN6r09yFHKDwfvf//5SFESQJOMkiLSIAOmEtq8QibvkkkuMZXIaT05FSiZOndqT+vgyVW3bF4mTU7k2sfbJKdgrrrii+Vs+V05hyqlNHyn94UOuaZPTuF3osq5kC1/5ylcay9r6qc8Y6QISBwAAEKEtyPYJ0CHJkYvtRWjkJ6vkFJyculPZMp+0hLav8EmcQmRFPk/Jk6xrC0zb9lMlTrVFv4FCsmSSLfSdwkztDx8igCKCXeiyrvSRXL+n09ZPfcZIF5A4AACACG1Btk+ADknOa17zmuLP//zP7cUlPmkJbV8RkziFnCpVAiV3qeqnWNu2nypxCukvWUe2L9k13zVmQmp/+JCbO+Qu2i50WVeum7NP/bb1U58x0gUkDgAAIEJbkO0ToEOSI9sJPdvNJy2h7Su6SJxCtiVCJqc79WWx7feROBFGua5MkMyabD90TV9qf9io6/Ake+bL9Okoef385z9fttuH1FMeE2JfN9fWT33GSBeQOAAAgAhtQbZPgI5JjnoQrUI99sMnLaHtK0IS5xMaaYNsS//8tu33lTiFPC/tHe94h/G6TWp/nDp1qvlbnnGnHuUhn2u3Wx4srK4FlP/L+qF15fXXvva15alU+4aQtn7qM0a6gMQBAABEaAuyfQK0T3LkAbxyOk+kQ2RCrs0SaVCn90LS4tu+widxkmkTMRJJkf+LFL3tbW8r7660T2u2bb+PxCkkGyfblnb7SO0PESsROLmGThcwaZ9cTyc3JMhykTH51QS5uUPW1e8olYfuyvblDl5pgxR5nzzKRJ6VJ48C8f1KRVs/9RkjXUDiAAAAAohoiNyEgqz6RQFfgA69Vy33SY48Z0yeuyan7ES+ZPsiGSIc8h5dWkLbV1xzzTXl67bEiejItW8iXyIxIiaSDbMv6G/bvgiWvG5LXKx9OvL8NrnLM3TqUkjpD2nXi1/84vIBwTZSJ/n5MMmiSZtlW29605vK06J2xk1OmX7wgx8sXv3qV5dtkM+WZ8d99KMfbTJ1Om391GeMdAWJAwAAgEmRDJfIX9fnt4EfJA4AAAAmRZ4TJxku+3o3SAOJAwAAgMmQa8xE4Lr82gLEQeIAAABgVOS6M7nJQp75Jj9G/8Y3vtG5wxPSQeIAAABgVOQGBbnpQH6ZQX4VwfcTX5AOEgcAAACwQJA4AAAAgAWCxAEAAAAsECQOAAAAYIEgcQAAAAALBIkDAAAAWCBIHAAAAMACQeIAAAAAFggSBwAAALBAkDgAAACABYLEAQAAACyQ/x9JEvCkdaHmtQAAAABJRU5ErkJggg==;" vertex="1" parent="1">
          <mxGeometry x="10" y="50" width="455" height="612.97" as="geometry" />
        </mxCell>
        <mxCell id="q5xawFNWXhV-jU2xZssF-5" value="聚簇索引和非聚簇索引" style="text;whiteSpace=wrap;fontSize=18;" vertex="1" parent="1">
          <mxGeometry x="10" y="10" width="240" height="40" as="geometry" />
        </mxCell>
      </root>
    </mxGraphModel>
  </diagram>
</mxfile>
